<svg xmlns="http://www.w3.org/2000/svg" xmlns:xlink="http://www.w3.org/1999/xlink" width="1080" zoomAndPan="magnify" viewBox="0 0 810 809.999993" height="1080" preserveAspectRatio="xMidYMid meet" version="1.0"><defs><clipPath id="6fb962266b"><path d="M 86 293 L 728 293 L 728 632.296875 L 86 632.296875 Z M 86 293 " clip-rule="nonzero"/></clipPath></defs><g clip-path="url(#6fb962266b)"><path fill="#000000" d="M 555.722656 446.746094 C 568 454.203125 570.449219 466.625 572.246094 479.027344 C 573.511719 487.777344 573.6875 496.71875 573.902344 505.585938 C 574.675781 537.925781 570.515625 569.589844 560.273438 600.351562 C 557.523438 608.609375 554.113281 616.5625 549.128906 623.765625 C 545.449219 629.082031 540.859375 632.003906 533.921875 631.785156 C 523.867188 631.460938 513.78125 632.089844 503.710938 632.238281 C 501.90625 632.261719 500.101562 631.894531 498.292969 631.71875 C 483.628906 630.273438 475.050781 621.800781 470.808594 608.144531 C 467.007812 595.910156 465.664062 583.300781 464.652344 570.617188 C 464.5 568.652344 464.433594 566.679688 464.304688 564.398438 C 462.589844 564.269531 461.226562 564.050781 459.875 564.074219 C 422.046875 564.820312 385.09375 558.941406 348.703125 549.117188 C 325.738281 542.917969 302.839844 536.476562 279.925781 530.085938 C 276.394531 529.105469 273.128906 528.320312 269.445312 530.132812 C 267.441406 531.121094 264.695312 530.695312 262.28125 530.746094 C 247.503906 531.070312 232.867188 529.402344 218.261719 527.4375 C 183.679688 522.785156 149.097656 518.128906 114.542969 513.292969 C 106.363281 512.148438 98.28125 510.324219 90.179688 508.675781 C 88.882812 508.410156 87.722656 507.421875 86.5 506.777344 C 86.597656 506.269531 86.703125 505.765625 86.800781 505.261719 C 88.675781 505.03125 90.5625 504.550781 92.429688 504.601562 C 119.863281 505.332031 147.3125 505.648438 174.578125 509.375 C 195.957031 512.296875 217.34375 515.1875 238.75 517.921875 C 251.542969 519.558594 264.519531 520.101562 277.164062 522.476562 C 300.34375 526.828125 323.304688 532.3125 346.40625 537.070312 C 366.539062 541.214844 386.625 545.921875 406.957031 548.710938 C 426.703125 551.417969 446.734375 552.078125 466.652344 553.484375 C 480.339844 554.445312 494.042969 555.078125 507.738281 555.980469 C 511.253906 556.210938 514.753906 556.851562 518.714844 559.839844 C 514.941406 560.6875 512.316406 561.273438 509.371094 561.941406 C 511.195312 579.710938 513.324219 597.273438 523.410156 612.652344 C 525.160156 615.320312 527.21875 617.902344 529.550781 620.066406 C 532.265625 622.589844 534.4375 622.550781 536.886719 619.738281 C 539.371094 616.886719 541.53125 613.632812 543.289062 610.277344 C 549.042969 599.285156 552.183594 587.359375 554.992188 575.378906 C 562.375 543.839844 564.023438 511.9375 560.582031 479.757812 C 559.941406 473.765625 558.910156 467.800781 557.75 461.878906 C 557.09375 458.515625 555.59375 455.40625 552.410156 452.859375 C 551.402344 454.300781 550.414062 455.484375 549.691406 456.808594 C 546.390625 462.824219 543.070312 468.832031 539.941406 474.933594 C 533.140625 488.230469 523.953125 499.609375 512.714844 509.375 C 512.109375 509.898438 511.519531 510.675781 510.820312 510.808594 C 509.953125 510.980469 508.667969 510.894531 508.152344 510.359375 C 507.648438 509.832031 507.570312 508.476562 507.867188 507.699219 C 508.195312 506.839844 509.101562 506.160156 509.851562 505.515625 C 520.320312 496.539062 527.804688 485.382812 533.546875 472.980469 C 538.125 463.09375 542.429688 453.085938 547.167969 443.273438 C 549.878906 437.65625 552.824219 432.082031 556.328125 426.933594 C 563.996094 415.683594 572.523438 413.433594 585.597656 418.949219 C 585.382812 417.394531 585.492188 416.019531 584.988281 414.933594 C 580.992188 406.359375 577.328125 397.582031 572.707031 389.351562 C 565.308594 376.179688 553.136719 369.691406 538.53125 368.261719 C 511.363281 365.613281 486.996094 372.730469 466.082031 390.664062 C 465.320312 391.316406 464.53125 391.957031 463.703125 392.519531 C 463.398438 392.726562 462.941406 392.707031 462.222656 392.863281 C 461.828125 389.550781 463.496094 386.996094 465.101562 384.535156 C 471.175781 375.167969 479.148438 367.675781 489.410156 363.347656 C 508.933594 355.117188 529.242188 353.429688 549.871094 358.472656 C 563.125 361.714844 573.777344 369.125 581.253906 380.640625 C 592.160156 397.445312 599.761719 415.5 601.539062 435.714844 C 602.070312 441.714844 603.027344 447.679688 603.847656 454.125 C 624.871094 445.769531 645.445312 437.605469 666.40625 429.273438 C 660.792969 422.609375 661.070312 414.671875 662.621094 406.695312 C 665.046875 394.238281 667.296875 381.71875 670.5625 369.480469 C 672.515625 362.160156 676.128906 355.253906 679.296875 348.296875 C 680.257812 346.179688 680.707031 344.382812 680.402344 342.027344 C 678.625 328.03125 677.035156 313.996094 675.460938 299.972656 C 675.230469 297.902344 675.429688 295.78125 675.429688 293.089844 C 679.109375 294.4375 679.535156 297.09375 680.03125 299.175781 C 682.601562 309.941406 684.894531 320.78125 687.25 331.597656 C 687.5 332.757812 687.558594 333.964844 687.792969 335.828125 C 689.402344 334.644531 690.667969 333.816406 691.820312 332.847656 C 695.421875 329.820312 699.320312 327.449219 704.011719 326.472656 C 712.054688 324.796875 719.941406 328.253906 722.871094 335.910156 C 725.074219 341.679688 726.535156 347.894531 727.253906 354.03125 C 728.988281 368.949219 726.234375 383.375 720.90625 397.324219 C 720.144531 399.316406 718.804688 401.085938 717.601562 403.1875 C 714.304688 400.894531 716.238281 398.410156 716.605469 396.394531 C 717.816406 389.660156 719.722656 383.039062 720.710938 376.277344 C 722.199219 366.109375 721.15625 356.125 716.703125 346.71875 C 711.808594 336.382812 706.457031 335.347656 698.257812 343.109375 C 692.128906 348.910156 687.960938 356.007812 684.945312 363.820312 C 679.320312 378.402344 676.246094 393.585938 674.164062 409.027344 C 673.335938 415.183594 672.144531 421.296875 671.046875 427.902344 C 674.839844 427.25 678.707031 426.578125 682.960938 425.847656 C 683.917969 420.660156 684.480469 415.234375 685.96875 410.074219 C 688.527344 401.191406 691.574219 392.433594 694.636719 383.707031 C 695.347656 381.675781 696.707031 379.730469 698.199219 378.152344 C 702.46875 373.644531 708.746094 374.496094 710.949219 380.296875 C 712.636719 384.734375 713.769531 389.679688 713.742188 394.394531 C 713.710938 400.175781 712.25 405.957031 711.3125 411.71875 C 711.203125 412.378906 710.484375 412.941406 709.835938 413.839844 C 705.679688 408.769531 705.128906 402.535156 702.34375 395.886719 C 696.695312 414.242188 688.023438 430.433594 688.613281 449.308594 C 688.851562 456.914062 687.441406 464.570312 686.738281 472.191406 C 686.296875 476.925781 685.753906 481.652344 688.113281 487.523438 C 689.886719 483.84375 691.339844 481.265625 692.402344 478.535156 C 696.875 466.980469 698.703125 454.796875 700.746094 442.667969 C 701.515625 438.09375 702.214844 433.503906 703.289062 429.003906 C 703.785156 426.921875 704.792969 424.78125 706.125 423.105469 C 708.429688 420.203125 711.136719 420.511719 712.664062 423.941406 C 713.601562 426.054688 714.148438 428.671875 713.863281 430.941406 C 712.609375 440.933594 711.453125 450.96875 709.371094 460.804688 C 707.546875 469.445312 704.941406 477.972656 701.949219 486.289062 C 699.3125 493.621094 697.210938 495.128906 690.15625 498.335938 C 694.605469 500.394531 698.019531 500.074219 701.0625 495.878906 C 704.21875 491.535156 707.210938 486.742188 708.839844 481.679688 C 711.917969 472.109375 714.609375 462.3125 716.296875 452.410156 C 718.835938 437.519531 720.34375 422.460938 722.375 407.476562 C 722.675781 405.234375 723.40625 403.046875 723.925781 400.898438 C 727.359375 401.273438 727.183594 403.371094 727.210938 405.078125 C 727.285156 410.722656 727.480469 416.394531 727.117188 422.019531 C 725.800781 442.632812 722.617188 462.945312 715.113281 482.300781 C 713.101562 487.492188 710.304688 492.601562 706.890625 496.984375 C 698.867188 507.292969 688.328125 506.621094 681.113281 495.835938 C 680.332031 494.664062 679.574219 493.460938 678.945312 492.199219 C 678.417969 491.140625 678.085938 489.976562 677.480469 488.332031 C 678.683594 487.933594 679.675781 487.597656 680.699219 487.253906 C 681.25 479.902344 681.804688 472.523438 682.40625 464.542969 C 680.984375 465.300781 679.820312 465.816406 678.757812 466.488281 C 663.960938 475.898438 649.21875 485.410156 634.355469 494.722656 C 626.839844 499.429688 619.117188 503.828125 611.445312 508.277344 C 607.609375 510.5 603.769531 512.761719 599.742188 514.59375 C 593.367188 517.484375 590.632812 515.757812 590.304688 508.890625 C 590.128906 505.261719 590.167969 501.621094 590.175781 497.988281 C 590.175781 493.144531 590.484375 488.28125 590.238281 483.449219 C 589.671875 472.171875 589.03125 460.894531 588.046875 449.652344 C 587.496094 443.359375 585.429688 437.398438 581.609375 432.25 C 577.410156 426.589844 573.8125 426.15625 568.378906 430.523438 C 562.957031 434.886719 559.226562 440.570312 555.726562 446.734375 Z M 595.050781 506.511719 C 608.433594 494.488281 623.257812 487.167969 637.765625 479.480469 C 652.3125 471.773438 666.863281 463.863281 683.433594 459.414062 C 684.015625 451.660156 684.035156 443.554688 682.160156 435.4375 C 658.738281 442.433594 635.644531 449.332031 612.15625 456.355469 C 612.917969 462.570312 611.25 468.816406 614.21875 475.246094 C 618.738281 473.996094 622.867188 473.125 626.804688 471.707031 C 635.707031 468.511719 644.5 465.007812 653.382812 461.757812 C 655.199219 461.089844 657.121094 459.558594 659.921875 461.246094 C 658.363281 462.429688 657.40625 463.476562 656.214844 464.019531 C 645.433594 468.972656 634.640625 473.925781 623.765625 478.664062 C 621.226562 479.773438 618.367188 480.386719 615.59375 480.683594 C 611.070312 481.167969 608.300781 478.9375 607.417969 474.488281 C 607.027344 472.523438 606.945312 470.492188 606.726562 468.507812 C 604.738281 466.941406 602.8125 465.414062 600.789062 463.824219 C 599.910156 471.074219 599.160156 477.875 598.25 484.660156 C 597.324219 491.546875 596.246094 498.414062 595.050781 506.511719 Z M 506.003906 562.148438 C 494.761719 562.773438 483.601562 563.394531 472.269531 564.03125 C 472.636719 572.261719 472.722656 579.90625 473.382812 587.488281 C 474.046875 595.125 475.539062 602.628906 478.644531 609.761719 C 481.871094 617.183594 487.121094 622.125 495.214844 623.203125 C 504.535156 624.445312 513.929688 625.175781 524.558594 626.261719 C 517.660156 615.988281 513.039062 606.015625 510.167969 595.257812 C 507.3125 584.527344 506 573.621094 506.003906 562.152344 Z M 506.003906 562.148438 " fill-opacity="1" fill-rule="nonzero"/></g><path fill="#000000" d="M 275.582031 276.078125 C 268.074219 281.867188 265.011719 282.066406 256.585938 276.828125 C 252.707031 274.414062 249.027344 271.953125 244.703125 276.070312 C 243.753906 271.195312 245.089844 268.710938 249.082031 268.617188 C 251.5625 268.558594 254.160156 269.496094 256.546875 270.40625 C 258.972656 271.339844 261.097656 273.140625 263.554688 273.886719 C 265.261719 274.398438 267.570312 274.265625 269.148438 273.492188 C 271.488281 272.332031 271.300781 269.527344 269.101562 268.117188 C 268.445312 267.691406 267.636719 267.378906 266.859375 267.269531 C 257.691406 265.976562 248.550781 264.0625 239.242188 266.09375 C 235.730469 266.855469 232.492188 268.089844 231.820312 272.140625 C 231.152344 276.179688 232.996094 279.660156 236.429688 281.246094 C 239.964844 282.878906 244.042969 283.714844 247.960938 284.050781 C 252.960938 284.476562 258.035156 283.914062 263.070312 284.042969 C 266.476562 284.128906 266.476562 284.328125 269 286.988281 C 262.332031 292.222656 244.082031 293.75 232.722656 289.765625 C 234.875 292.128906 236.699219 294.125 238.621094 296.226562 C 235.886719 298.773438 233.90625 297.597656 231.988281 296.601562 C 228.980469 295.039062 226.878906 292.617188 226.039062 289.335938 C 225.652344 287.800781 225.792969 286.140625 225.710938 284.53125 C 225.585938 282.355469 225.714844 280.144531 225.320312 278.023438 C 223.957031 270.71875 227.113281 264.65625 234.132812 262.207031 C 236.953125 261.222656 240.023438 260.527344 242.992188 260.480469 C 252.882812 260.324219 262.714844 261.074219 272.730469 263.777344 C 272.910156 262.808594 273.136719 261.742188 273.304688 260.667969 C 274.460938 253.324219 280.378906 248.484375 287.800781 249.074219 C 290.1875 249.261719 292.539062 249.984375 294.878906 250.574219 C 298.078125 251.375 301.085938 251.597656 304.242188 249.941406 C 309.828125 247.011719 310.519531 247.46875 312.207031 254.058594 C 312.917969 254.128906 313.699219 254.261719 314.480469 254.273438 C 319.058594 254.351562 322.835938 255.8125 324.671875 260.378906 C 326.398438 264.65625 324.800781 271.125 321.277344 274.332031 C 319.820312 275.65625 318.011719 276.648438 316.785156 278.132812 C 315.695312 279.453125 315.191406 281.25 314.320312 283.066406 C 316.007812 283.882812 317.785156 284.75 319.867188 285.75 C 322.265625 277.371094 327.261719 272.242188 335.992188 271.824219 C 342.054688 263.113281 355.496094 258.054688 365.949219 260.46875 C 370.671875 261.554688 372.808594 265.816406 368.796875 269.289062 C 362.875 274.410156 356.976562 279.558594 350.75 284.976562 C 350.503906 288.539062 350.222656 292.722656 349.902344 297.351562 C 354.539062 300.519531 357.785156 304.820312 356.117188 310.648438 C 359.648438 313.09375 362.859375 315.324219 366.566406 317.894531 C 367.222656 317.179688 368.421875 315.945312 369.558594 314.648438 C 376.230469 307.078125 384.410156 301.660156 393.726562 297.96875 C 395.9375 297.09375 398.394531 296.472656 400.746094 296.433594 C 404.554688 296.371094 406.085938 299.242188 404.46875 302.609375 C 402.5625 306.582031 400.675781 310.5625 398.878906 314.578125 C 393.402344 326.800781 384.136719 333.996094 370.792969 335.699219 C 368.710938 335.964844 366.566406 335.738281 363.566406 335.738281 C 361.839844 336.8125 359.316406 339.042969 356.382812 340.042969 C 350.066406 342.199219 344.488281 339.894531 339.59375 335.796875 C 336.675781 333.351562 333.914062 330.71875 330.664062 327.796875 C 329.828125 329.457031 329.234375 330.617188 328.667969 331.792969 C 328.140625 332.871094 327.65625 333.972656 326.855469 335.703125 C 328.789062 336.042969 330.429688 336.371094 332.085938 336.605469 C 344.402344 338.34375 350.972656 347.816406 348.386719 360.007812 C 347.402344 364.640625 345.566406 368.839844 342.457031 372.421875 C 336.410156 379.378906 327.773438 379.664062 321.269531 373.085938 C 319.859375 371.664062 318.683594 370.003906 317.191406 368.199219 C 315.230469 370.222656 313.292969 372.234375 311.410156 374.175781 C 308.488281 372.203125 309.34375 370.214844 309.878906 368.300781 C 310.808594 365.003906 312.011719 361.765625 312.671875 358.414062 C 313.9375 351.941406 309.355469 346.285156 302.839844 345.902344 C 300.121094 345.742188 298.183594 346.625 297.277344 349.425781 C 296.351562 352.273438 295.203125 355.054688 294.15625 357.859375 C 294.472656 358.027344 294.800781 358.355469 295.097656 358.332031 C 299.8125 357.929688 303.433594 359.578125 305.5 363.957031 C 307.589844 368.386719 306.832031 372.648438 304.207031 376.585938 C 299.109375 384.242188 289.082031 385.671875 282.085938 379.800781 C 281.191406 379.050781 280.371094 378.214844 279.316406 377.238281 C 277.371094 378.734375 275.78125 380.34375 273.875 381.332031 C 270.699219 382.976562 267.433594 384.792969 263.996094 385.511719 C 258.667969 386.621094 256.496094 383.984375 257.628906 378.539062 C 257.949219 376.980469 258.402344 375.320312 259.261719 374.011719 C 262.4375 369.234375 262.191406 364.628906 259.089844 360.011719 C 266.570312 362.320312 268.574219 365.019531 267.292969 371.328125 C 266.9375 373.085938 266.199219 374.777344 265.652344 376.496094 C 265.191406 377.925781 264.75 379.359375 264.304688 380.796875 C 264.617188 381.066406 264.933594 381.332031 265.242188 381.605469 C 268.546875 379.40625 271.8125 377.15625 275.167969 375.039062 C 277.027344 373.871094 277.910156 372.472656 277.910156 370.152344 C 277.910156 365.898438 279.640625 362.050781 283.125 359.703125 C 287.84375 356.519531 289.984375 352.394531 290.9375 346.851562 C 291.984375 340.75 295.792969 338.207031 302.109375 337.882812 C 303.308594 337.820312 304.527344 337.871094 305.726562 337.78125 C 305.992188 337.761719 306.226562 337.347656 306.664062 336.941406 C 306.117188 335.777344 305.527344 334.542969 304.964844 333.34375 C 297.761719 335.179688 294.949219 333.617188 291.710938 325.964844 C 295.203125 325.160156 295.824219 329.289062 299.101562 330.1875 C 299.503906 328.035156 300.425781 326.078125 300.082031 324.371094 C 298.921875 318.5625 292.726562 319.042969 288.144531 315.851562 C 290.035156 314.820312 291.226562 313.789062 292.578125 313.5 C 297.324219 312.484375 301.558594 314.050781 305.519531 317.191406 C 307.007812 313.539062 308.269531 310.441406 309.621094 307.117188 C 302.910156 305.882812 297.511719 301.53125 290.664062 302.460938 C 289.492188 302.621094 287.957031 301.644531 286.894531 300.804688 C 283.378906 297.992188 283.230469 292.992188 286.65625 290.167969 C 287.890625 291.644531 289.117188 293.117188 290.457031 294.71875 C 296.457031 292.800781 301.699219 294.164062 306.464844 297.863281 C 307.246094 298.472656 308.179688 298.960938 309.117188 299.285156 C 312.304688 300.386719 315.414062 298.316406 316.75 294.292969 C 317.984375 290.59375 317.105469 288.027344 313.523438 287.234375 C 308.4375 286.105469 304.203125 283.644531 300.109375 280.617188 C 298.359375 279.324219 296.296875 278.269531 294.207031 277.644531 C 286.0625 275.179688 279.464844 279.710938 278.890625 288.132812 C 278.394531 295.378906 279.957031 302.144531 284.082031 308.242188 C 284.695312 309.152344 285.050781 310.238281 285.859375 311.941406 C 283.242188 312.464844 281.226562 312.867188 279.148438 313.285156 C 278.851562 315.4375 278.5625 317.59375 278.226562 320.050781 C 285.589844 321.355469 289.230469 326.011719 289.726562 332.996094 C 290.023438 337.199219 289.511719 341.402344 284.140625 343.9375 C 283.082031 341.3125 282.007812 339.027344 281.230469 336.648438 C 279.757812 332.121094 276.789062 327.90625 272.511719 327.410156 C 267.492188 326.828125 263.328125 325.027344 259.148438 322.644531 C 255.3125 325.351562 251.460938 326.660156 247.058594 323.515625 L 247.058594 338.21875 C 256.449219 333.246094 260.761719 334.882812 264.894531 344.738281 C 265.746094 346.769531 266.644531 348.863281 267.964844 350.585938 C 270 353.234375 271.566406 353.035156 274.8125 350.078125 C 273.597656 349.027344 272.238281 348.132812 271.261719 346.925781 C 269.890625 345.230469 268.4375 343.445312 267.679688 341.453125 C 266.515625 338.386719 268.09375 335.21875 270.914062 333.84375 C 273.726562 332.464844 275.171875 333.175781 277.535156 336.894531 C 278.714844 338.765625 280.152344 340.476562 281.289062 342.371094 C 283.8125 346.554688 283.570312 351.023438 280.796875 354.167969 C 277.4375 357.980469 272.078125 359.085938 267.617188 356.824219 C 266.414062 356.214844 265.3125 355.410156 264.132812 354.664062 C 262.316406 356.636719 260.710938 358.371094 259.109375 360.101562 C 259.082031 360.304688 259.128906 360.574219 259.011719 360.691406 C 255.183594 364.648438 252.835938 368.882812 253.316406 374.886719 C 253.632812 378.894531 249.816406 381.5 245.285156 381.332031 C 239.765625 381.125 234.507812 379.5625 229.964844 376.332031 C 225.785156 373.367188 224.984375 369.632812 227.734375 365.28125 C 229.660156 362.222656 231.65625 358.804688 237.644531 358.597656 C 235.535156 361.359375 234.191406 363.167969 232.792969 364.941406 C 228.84375 369.945312 229.582031 372.660156 235.5625 374.777344 C 236.886719 375.246094 238.277344 375.550781 239.65625 375.828125 C 246.449219 377.175781 247.605469 376.082031 247.207031 368.425781 C 238.730469 365.84375 236.53125 359.28125 237.40625 351.09375 C 236.65625 351.09375 236.242188 351 235.890625 351.109375 C 225.359375 354.40625 219.761719 352.613281 213.820312 343.296875 C 211.136719 339.085938 209.269531 334.359375 206.515625 328.835938 C 204.117188 328.835938 200.941406 328.875 197.761719 328.824219 C 194.535156 328.773438 191.277344 328.921875 188.101562 328.46875 C 179.179688 327.203125 175.648438 321.5 178.230469 312.9375 C 178.457031 312.1875 178.664062 311.4375 178.980469 310.335938 C 177.957031 309.9375 177.050781 309.605469 176.160156 309.238281 C 168.492188 306.0625 166.457031 299.53125 171.097656 292.65625 C 174.273438 287.949219 178.835938 285.015625 184.144531 283.320312 C 187.203125 282.34375 190.371094 281.5625 193.550781 281.148438 C 200.25 280.273438 206.984375 279.707031 214.011719 278.976562 C 214.574219 281.9375 212.863281 284.039062 210.585938 285.207031 C 207.230469 286.933594 203.625 288.285156 199.992188 289.339844 C 195.167969 290.742188 190.078125 291.3125 185.378906 293 C 182.484375 294.042969 179.78125 296.183594 177.570312 298.398438 C 175.390625 300.585938 176.414062 303.386719 179.46875 303.625 C 182.386719 303.851562 185.476562 303.316406 188.320312 302.507812 C 192.382812 301.363281 196.195312 299.332031 200.273438 298.308594 C 204.039062 297.367188 207.800781 297.785156 210.355469 302.039062 C 205.617188 302.886719 201.128906 303.277344 196.917969 304.5625 C 192.523438 305.90625 188.398438 308.132812 183.769531 310.144531 C 183.71875 311.269531 183.5625 312.632812 183.601562 313.992188 C 183.738281 318.59375 184.886719 320.054688 189.492188 320.882812 C 194.84375 321.847656 200.238281 322.578125 206.242188 323.507812 C 206.65625 321.742188 207.089844 319.675781 207.625 317.632812 C 209.046875 312.179688 211.808594 307.550781 216.464844 304.292969 C 221.863281 300.507812 227.734375 301.800781 230.785156 307.589844 C 234.082031 313.84375 235.246094 320.503906 233.390625 327.5 C 232.402344 331.230469 230.234375 333.996094 226.683594 335.582031 C 221.15625 338.050781 215.359375 335.070312 214.128906 329.160156 C 213.207031 324.710938 215.136719 322.875 219.652344 323.929688 C 220.234375 324.066406 220.816406 324.222656 221.640625 324.425781 C 225.003906 320.585938 225.980469 315.949219 225.671875 311.042969 C 225.378906 306.394531 222.464844 305.042969 218.699219 307.707031 C 214.726562 310.511719 212.320312 314.539062 211.460938 319.214844 C 210.082031 326.699219 212.332031 333.265625 217.90625 338.433594 C 223.53125 343.644531 230.828125 342.5 234.835938 335.949219 C 240.292969 327.035156 240.417969 317.683594 237.042969 308.015625 C 236.324219 305.960938 234.308594 303.714844 237.5 300.8125 C 240.347656 306.09375 243.046875 311.105469 245.71875 316.074219 C 247.167969 314.714844 248.75 313.222656 250.871094 311.230469 C 251.839844 313.730469 252.457031 315.308594 253.042969 316.835938 C 253.507812 316.964844 253.929688 317.230469 254.265625 317.152344 C 258.390625 316.222656 261.726562 317.519531 264.71875 320.398438 C 266.296875 321.917969 268.546875 323.722656 270.550781 321.9375 C 271.972656 320.671875 272.871094 318.15625 272.957031 316.152344 C 273.246094 309.367188 268.632812 305.453125 261.773438 306.308594 C 260.1875 306.503906 258.640625 307.027344 257.066406 307.332031 C 255.679688 307.59375 254.277344 307.949219 252.894531 307.925781 C 249.960938 307.875 247.898438 306.4375 247.152344 303.503906 C 246.515625 300.988281 247.769531 298.285156 250.574219 297.132812 C 256.839844 294.558594 263.234375 292.804688 270.679688 297.199219 C 269.542969 288.886719 271.648438 282.203125 275.457031 275.988281 C 276.019531 275.882812 276.707031 275.949219 277.140625 275.652344 C 284.4375 270.570312 291.816406 271.054688 299.289062 275.21875 C 300.425781 275.851562 301.628906 276.367188 302.910156 276.996094 C 303.449219 273.085938 305.054688 270.652344 307.730469 269.695312 C 309.613281 271.933594 305.707031 277.082031 311.816406 277.449219 C 311.644531 274.203125 313.601562 272.605469 316.242188 271.085938 C 319.085938 269.449219 320.320312 264.695312 319.117188 261.949219 C 317.746094 258.804688 314.742188 258.859375 311.949219 258.507812 C 309.554688 258.210938 308.378906 259.800781 306.988281 261.316406 C 305.347656 263.101562 303.761719 265.5 300.167969 263.6875 C 301.570312 260.960938 302.851562 258.476562 304.203125 255.855469 C 301.804688 255.855469 299.988281 256.019531 298.210938 255.8125 C 296.425781 255.605469 294.691406 254.996094 292.914062 254.640625 C 290.949219 254.253906 288.957031 253.644531 286.984375 253.679688 C 282.542969 253.75 280.460938 256.417969 281.003906 261.167969 C 283.46875 261.65625 286.066406 262.007812 288.542969 262.742188 C 289.699219 263.09375 290.632812 264.199219 291.660156 264.96875 C 290.742188 265.820312 289.921875 267.25 288.886719 267.4375 C 284.683594 268.183594 280.417969 268.542969 276.292969 269.03125 C 276.09375 271.007812 275.839844 273.5625 275.585938 276.117188 Z M 314.714844 341.769531 C 319.046875 346.402344 321.4375 351.277344 320.527344 357.375 C 320.195312 359.585938 318.378906 362.0625 320.921875 364.117188 C 322.789062 365.632812 324.613281 367.28125 326.6875 368.4375 C 329.84375 370.195312 333.21875 369.90625 335.472656 367.0625 C 337.9375 363.949219 340.296875 360.542969 341.707031 356.882812 C 343.761719 351.535156 341.757812 347.007812 336.910156 343.890625 C 333.242188 341.53125 329.28125 340.847656 324.355469 341.875 C 328.386719 347.339844 334.253906 351.347656 333.050781 358.828125 C 330.347656 356.140625 328.328125 353.003906 326.007812 350.113281 C 323.644531 347.171875 320.972656 344.46875 318.058594 341.246094 C 317.570312 341.324219 316.433594 341.503906 314.714844 341.777344 Z M 333.230469 322.941406 C 336.96875 325.46875 340.007812 327.835938 343.347656 329.664062 C 345.386719 330.785156 347.855469 331.535156 350.167969 331.632812 C 353.375 331.765625 355.535156 329.472656 356.136719 326.566406 C 356.542969 324.628906 356.382812 321.671875 355.179688 320.488281 C 353.128906 318.472656 350.273438 319.757812 347.898438 321.046875 C 347.1875 321.425781 346.574219 322.015625 345.832031 322.289062 C 344.828125 322.648438 343.75 322.796875 342.222656 323.148438 C 343.121094 316.707031 347.984375 314.683594 352.207031 311.941406 C 350.5 308.71875 348.871094 305.648438 347.019531 302.152344 C 338.074219 306.78125 335.609375 314.496094 333.238281 322.945312 Z M 366.292969 332.394531 C 384.019531 328.359375 394.753906 319.429688 395.691406 306.929688 C 388.816406 310.402344 382.230469 313.375 375.996094 316.972656 C 370.328125 320.238281 365.109375 324.214844 366.285156 332.394531 Z M 331.511719 310.652344 C 328.21875 306.535156 324.632812 303.371094 319.085938 305.222656 C 310.304688 308.144531 306.199219 325.527344 312.542969 332.464844 C 319.394531 330.363281 322.660156 324.777344 321.210938 317.683594 C 320.84375 315.867188 320.519531 314.042969 320.175781 312.21875 C 320.617188 311.941406 321.058594 311.667969 321.496094 311.390625 C 323.902344 313.148438 326.304688 314.914062 328.945312 316.84375 C 329.835938 314.6875 330.671875 312.683594 331.511719 310.652344 Z M 345.132812 295.898438 C 343.574219 292.574219 342.222656 288.566406 339.96875 285.148438 C 337.15625 280.894531 332.097656 280.449219 328.414062 283.476562 C 324.703125 286.519531 324.199219 291.171875 327.21875 295.179688 C 327.523438 295.582031 328.265625 295.652344 328.90625 295.917969 C 330.25 294.964844 331.570312 294.042969 333.257812 292.84375 C 334.402344 297.566406 331.253906 298.621094 328.382812 299.796875 C 330.566406 301.796875 332.441406 303.515625 334.082031 305.023438 C 337.496094 302.203125 340.710938 299.550781 345.125 295.902344 Z M 245.371094 357.839844 C 250.425781 354.347656 255.453125 350.882812 260.820312 347.175781 C 259.953125 344.5625 259.464844 340.625 254.691406 340.398438 C 252.359375 340.289062 248.296875 343.640625 247.960938 345.21875 C 248.589844 347.085938 249.09375 348.605469 250.011719 351.359375 C 248.421875 350.042969 247.910156 349.730469 247.554688 349.296875 C 246.46875 347.964844 245.078125 346.660156 243.554688 348.015625 C 242.511719 348.941406 241.792969 350.746094 241.753906 352.183594 C 241.679688 354.695312 242.785156 356.855469 245.375 357.839844 Z M 289.492188 360.878906 C 288.640625 361.511719 286.882812 362.507812 285.53125 363.898438 C 283.292969 366.199219 283.125 370.101562 284.878906 372.125 C 286.867188 374.425781 290.089844 374.8125 293.023438 372.828125 C 294.296875 371.96875 295.46875 370.734375 296.257812 369.421875 C 297.738281 366.957031 297.140625 365.632812 294.535156 364.164062 C 293.003906 363.296875 291.574219 362.25 289.492188 360.878906 Z M 342.292969 272.792969 C 344.789062 275.449219 347.027344 277.835938 349.601562 280.585938 C 353.285156 277.214844 356.710938 274.078125 360.144531 270.945312 C 353.769531 269.988281 347.984375 269.96875 342.292969 272.792969 Z M 321.621094 295.585938 C 321.207031 296.804688 320.875 297.773438 320.378906 299.253906 C 322.199219 299.09375 323.402344 298.980469 326.191406 298.738281 C 324.128906 297.3125 323.191406 296.667969 321.621094 295.585938 Z M 321.621094 295.585938 " fill-opacity="1" fill-rule="nonzero"/><path fill="#000000" d="M 269.828125 491.664062 C 299.820312 497.4375 330.222656 499.269531 361.316406 502.210938 C 363.65625 490.402344 363.960938 478.347656 365.9375 466.546875 C 367.910156 454.824219 369.488281 443.023438 370.929688 431.214844 C 372.390625 419.265625 373.46875 407.269531 375.175781 395.269531 C 377.128906 397.925781 377.195312 400.964844 376.875 403.953125 C 374.425781 427.210938 371.917969 450.457031 369.363281 473.707031 C 368.328125 483.089844 367.128906 492.453125 365.925781 502.519531 C 373.191406 503.347656 379.914062 504.28125 386.671875 504.847656 C 413.820312 507.15625 440.863281 510.191406 467.699219 514.976562 C 479.664062 517.109375 491.75 517.417969 503.898438 516.953125 C 512.742188 516.609375 521.613281 516.890625 530.972656 516.890625 C 531.433594 516.027344 532.035156 514.535156 532.953125 513.261719 C 537 507.636719 542.765625 507.558594 546.054688 513.578125 C 548.234375 517.5625 549.65625 522.132812 550.515625 526.613281 C 552.597656 537.457031 551.234375 548.359375 549.671875 559.140625 C 548.953125 564.074219 547.679688 569.035156 545.828125 573.65625 C 543.625 579.1875 539.667969 581.78125 535.953125 581.054688 C 531.039062 580.097656 528.917969 576.328125 528.347656 571.945312 C 527.476562 565.167969 526.617188 558.300781 526.785156 551.496094 C 527.035156 541.460938 528.199219 531.453125 529.007812 521.046875 C 523.085938 521.375 516.632812 521.265625 510.316406 522.160156 C 482.308594 526.128906 454.820312 522.210938 427.257812 517.683594 C 408.363281 514.582031 389.335938 512.058594 370.277344 510.171875 C 356.738281 508.832031 343.039062 508.367188 329.4375 508.59375 C 308.144531 508.949219 287.1875 506.980469 266.214844 503.417969 C 254.738281 501.464844 242.925781 500.488281 231.292969 500.710938 C 211.472656 501.078125 192.316406 498.382812 173.527344 492.246094 C 160.300781 487.925781 146.984375 483.859375 133.003906 482.628906 C 130.394531 482.402344 127.789062 482.078125 125.167969 481.96875 C 116.046875 481.570312 107.042969 480.410156 98.527344 477.003906 C 92.988281 474.785156 87.632812 472.089844 82.300781 469.398438 C 81.613281 469.054688 81.019531 467.160156 81.367188 466.503906 C 81.75 465.777344 83.558594 465.046875 84.253906 465.371094 C 98.191406 471.921875 113.171875 473.292969 128.203125 475.011719 C 139.378906 476.292969 150.472656 478.742188 161.4375 481.355469 C 176.976562 485.054688 192.445312 488.382812 208.578125 488.320312 C 225.054688 488.25 241.535156 489.023438 258.398438 489.4375 C 258.894531 469.917969 260.382812 450.484375 267.046875 431.441406 C 261.203125 423.921875 257.226562 415.183594 256.832031 405.175781 C 256.683594 401.386719 256.988281 397.5 257.730469 393.78125 C 258.15625 391.632812 259.871094 389.746094 260.917969 387.882812 C 264.621094 388.832031 264.253906 391.335938 264.550781 393.429688 C 266.167969 404.800781 269.851562 415.371094 276.75 424.65625 C 278.660156 427.226562 280.882812 429.554688 283.339844 432.429688 C 289.152344 420.804688 290.160156 409.421875 286.785156 397.53125 C 286.242188 395.617188 284.28125 393.605469 287.050781 390.785156 C 288.265625 392.359375 289.648438 393.691406 290.484375 395.304688 C 296.0625 406.09375 293.574219 423.972656 285.371094 432.855469 C 285.234375 433 285.019531 433.0625 284.871094 433.195312 C 283.035156 434.824219 283.269531 438.675781 279.796875 438.410156 C 277.269531 438.21875 274.792969 437.320312 272.53125 436.789062 C 271.644531 454.765625 270.757812 472.8125 269.832031 491.65625 Z M 538.652344 513.871094 C 539.351562 522.894531 540 530.824219 540.542969 538.765625 C 540.617188 539.863281 540.308594 541.0625 539.914062 542.121094 C 538.335938 546.394531 538.109375 552.1875 539.757812 558.578125 C 540.957031 553.476562 542.15625 549.453125 542.804688 545.347656 C 544.085938 537.234375 545.570312 529.070312 543.320312 520.867188 C 542.65625 518.449219 542.222656 515.847656 538.652344 513.875 Z M 538.652344 513.871094 " fill-opacity="1" fill-rule="nonzero"/><path fill="#000000" d="M 630.503906 283.8125 C 630.621094 263.894531 631.226562 245.148438 638.390625 227.378906 C 638.941406 226.007812 640.058594 224.863281 641.066406 223.382812 C 643.519531 225.386719 642.414062 227.488281 642.335938 229.3125 C 641.714844 243.414062 640.257812 257.53125 640.53125 271.609375 C 640.847656 288.332031 642.417969 305.042969 643.816406 321.726562 C 646.707031 356.203125 644.777344 390.734375 645.128906 425.234375 C 645.148438 426.882812 644.605469 428.539062 644.085938 431.582031 C 642.527344 429.5 641.441406 428.710938 641.347656 427.8125 C 640.765625 422.40625 640.175781 416.980469 640.015625 411.558594 C 639.484375 393.800781 639.660156 376.011719 638.566406 358.292969 C 637.582031 342.410156 635.308594 326.605469 633.550781 310.777344 C 632.773438 303.773438 631.863281 296.785156 630.910156 288.933594 C 617.734375 287.789062 604.421875 286.636719 590.703125 285.449219 C 586.199219 312.304688 583.742188 339.289062 581.929688 366.875 C 581.125 365.992188 579.847656 365.230469 579.585938 364.210938 C 578.613281 360.515625 577.753906 356.773438 577.269531 352.988281 C 575.613281 340.097656 576.378906 327.164062 577.507812 314.308594 C 579.8125 288.105469 584.984375 262.433594 592.980469 237.363281 C 594.511719 232.566406 596.308594 227.84375 598.230469 223.1875 C 601.605469 215.003906 607.292969 209.464844 616.398438 208.097656 C 617.082031 207.992188 617.722656 207.585938 619.460938 206.878906 C 616.589844 205.902344 614.804688 205.171875 612.957031 204.6875 C 588.105469 198.136719 562.753906 194.691406 537.210938 192.414062 C 498.324219 188.949219 459.390625 189.453125 420.453125 191.109375 C 408.96875 191.59375 397.5 192.421875 386.050781 193.398438 C 372.804688 194.535156 362.316406 201.066406 354.382812 211.425781 C 348.753906 218.777344 343.832031 226.679688 338.648438 234.367188 C 336.617188 237.375 334.789062 240.523438 332.71875 243.507812 C 331.886719 244.710938 330.664062 245.632812 328.867188 247.4375 C 329.003906 245.53125 328.828125 244.652344 329.144531 244.03125 C 334.445312 233.613281 339.425781 223.007812 345.253906 212.886719 C 354.65625 196.585938 369.195312 187.675781 387.785156 185.261719 C 425.261719 180.398438 462.863281 177.871094 500.683594 178.933594 C 531.019531 179.785156 561.066406 182.914062 590.589844 190.082031 C 605.296875 193.648438 619.640625 198.375 633.109375 205.507812 C 645.074219 211.839844 655.128906 220.402344 663.683594 230.8125 C 671.796875 240.6875 676.328125 251.847656 675.429688 264.839844 C 675.082031 269.863281 674.699219 274.894531 674.128906 279.898438 C 673.941406 281.535156 673.128906 283.09375 672.597656 284.691406 C 672.152344 284.664062 671.707031 284.640625 671.261719 284.613281 C 670.917969 283.417969 670.269531 282.222656 670.289062 281.039062 C 670.375 275.992188 670.414062 270.929688 670.910156 265.917969 C 671.886719 256.0625 669.742188 247.023438 664.207031 238.902344 C 656.332031 227.347656 646.234375 218.210938 633.523438 212.195312 C 622.402344 206.933594 607.242188 212.835938 603.828125 224.605469 C 599.902344 238.125 597.214844 252.007812 594.097656 265.765625 C 593.265625 269.4375 592.8125 273.195312 592.101562 277.382812 C 605.316406 277.363281 617.761719 279.34375 630.503906 283.832031 Z M 630.503906 283.8125 " fill-opacity="1" fill-rule="nonzero"/><path fill="#000000" d="M 563.480469 279.234375 C 565.40625 280.410156 567.332031 281.582031 569.253906 282.75 C 569.117188 283.261719 568.988281 283.773438 568.851562 284.285156 C 566.601562 284.175781 564.332031 284.199219 562.097656 283.933594 C 542.863281 281.679688 523.660156 279.128906 504.40625 277.136719 C 474.054688 273.996094 443.578125 273.464844 413.082031 273.730469 C 405.816406 273.796875 398.546875 273.816406 391.28125 273.683594 C 387.691406 273.621094 384.117188 273.160156 379.953125 272.839844 C 378.265625 283.554688 378.453125 295.269531 370.605469 305.8125 C 369.027344 299.828125 372.527344 296.085938 373.3125 291.8125 C 374.148438 287.277344 375.15625 282.777344 376.171875 277.867188 C 372.394531 280.046875 369.71875 283.429688 366.855469 290.796875 C 364.988281 295.601562 363.894531 300.707031 362.394531 305.914062 C 359.066406 304.925781 359.136719 302.171875 359.050781 299.710938 C 358.839844 293.3125 360.558594 287.265625 363.480469 281.683594 C 365.613281 277.609375 368.226562 273.71875 371.078125 270.101562 C 373.054688 267.59375 375.570312 265.886719 379.488281 266.703125 C 381.726562 267.167969 384.34375 265.265625 386.847656 265.066406 C 397.5 264.199219 408.167969 263.546875 418.835938 262.878906 C 421.242188 262.730469 423.660156 262.859375 426.695312 262.859375 C 436.167969 246.339844 445.671875 229.769531 455.738281 212.207031 C 449.53125 211.742188 444.449219 211.230469 439.363281 211.003906 C 421.609375 210.230469 403.945312 209.75 386.394531 214.046875 C 368.671875 218.378906 355.300781 227.910156 346.492188 243.867188 C 344.539062 247.398438 342.578125 250.929688 340.492188 254.382812 C 339.40625 256.179688 338.027344 257.808594 336.78125 259.515625 C 336.398438 259.335938 336.015625 259.160156 335.636719 258.988281 C 335.804688 257.785156 335.71875 256.476562 336.179688 255.398438 C 341.035156 243.996094 347.007812 233.289062 355.808594 224.386719 C 362.503906 217.609375 370.851562 213.644531 379.675781 210.539062 C 393.523438 205.671875 407.894531 203.425781 422.480469 203.480469 C 456.992188 203.601562 491.511719 203.9375 526.015625 204.746094 C 535.628906 204.972656 545.339844 206.472656 554.757812 208.542969 C 576.082031 213.230469 583.695312 224.785156 580.652344 246.324219 C 578.820312 259.304688 572.945312 270.5625 563.480469 279.234375 Z M 457.683594 212.125 C 452.253906 230.320312 443.894531 246.902344 432.527344 263.0625 C 476.363281 264.542969 518.746094 269.183594 560.660156 278.585938 C 570.046875 266.417969 575.316406 252.910156 575.667969 237.75 C 575.914062 227.050781 572.292969 221.972656 561.851562 219.378906 C 553.683594 217.347656 545.210938 216.199219 536.804688 215.597656 C 520.914062 214.453125 504.984375 213.949219 489.058594 213.257812 C 478.597656 212.804688 468.136719 212.5 457.679688 212.125 Z M 457.683594 212.125 " fill-opacity="1" fill-rule="nonzero"/><path fill="#000000" d="M 384.316406 379.0625 C 373.398438 385.277344 362.878906 384.4375 351.054688 379.488281 C 353.691406 384.292969 355.683594 387.695312 357.457031 391.207031 C 358.898438 394.078125 360.441406 396.980469 361.28125 400.046875 C 362.542969 404.617188 360.53125 408.019531 355.976562 409.402344 C 353.90625 410.03125 351.578125 410.328125 349.445312 410.09375 C 337.117188 408.75 329.320312 400.75 322.640625 391.289062 C 322.265625 390.753906 322.5625 389.175781 323.101562 388.722656 C 323.617188 388.285156 325.109375 388.296875 325.699219 388.742188 C 327.941406 390.4375 329.945312 392.449219 332.136719 394.226562 C 337.402344 398.5 343.269531 401.507812 350.105469 402.246094 C 352.023438 402.453125 353.984375 402.277344 356.933594 402.277344 C 355.941406 399.148438 355.4375 396.84375 354.507812 394.738281 C 352.96875 391.234375 351.410156 387.6875 349.386719 384.460938 C 347.054688 380.738281 346.671875 377.199219 349.042969 372.984375 C 363.035156 375.769531 376.070312 374.777344 385.066406 361.125 C 382.753906 356.628906 378.730469 356.5 375.046875 356.164062 C 371.492188 355.839844 367.882812 356.09375 363.511719 356.09375 C 370.277344 350.28125 388.390625 353.363281 394.28125 362.148438 C 397.097656 359.933594 399.859375 357.652344 402.75 355.542969 C 404.367188 354.359375 406.132812 353.332031 407.933594 352.453125 C 418.34375 347.359375 426.9375 349.984375 432.207031 360.386719 C 437.242188 370.347656 439.128906 380.96875 436.847656 392.085938 C 433.722656 407.308594 421.085938 414.835938 406.449219 409.625 C 401.449219 407.84375 397.035156 404.429688 392.320312 401.753906 C 392.714844 402.53125 393.109375 403.757812 393.859375 404.703125 C 398.921875 411.105469 405.476562 414.410156 413.753906 414.390625 C 421.648438 414.371094 428.964844 412.402344 435.476562 408.019531 C 445.457031 401.292969 449.523438 391.796875 448.011719 379.863281 C 446.875 370.871094 443.769531 362.675781 438.257812 355.441406 C 429.898438 344.480469 417.179688 340.769531 404.320312 345.972656 C 399.34375 347.992188 394.71875 350.902344 389.25 353.765625 C 389.050781 352.238281 388.363281 350.757812 388.832031 349.886719 C 390.136719 347.421875 391.625 344.933594 393.542969 342.949219 C 406.304688 329.789062 426.445312 328.953125 440.667969 340.832031 C 450.050781 348.664062 454.324219 359.132812 455.785156 370.882812 C 456.328125 375.253906 456.347656 379.773438 455.972656 384.171875 C 454.050781 407.011719 430.769531 424.152344 408.363281 419.484375 C 399.472656 417.636719 392.476562 412.875 388.894531 404.6875 C 386.191406 398.519531 385.066406 391.628906 383.527344 384.984375 C 383.160156 383.40625 383.941406 381.566406 384.3125 379.070312 Z M 388.984375 376.042969 C 392.605469 380.964844 396.128906 386.078125 400.007812 390.910156 C 401.863281 393.21875 404.148438 395.398438 406.660156 396.9375 C 415.449219 402.308594 427.628906 398.570312 431.003906 389.339844 C 434.941406 378.578125 432.160156 368.710938 425.539062 359.871094 C 422.722656 356.113281 418.582031 355.070312 414.195312 357.265625 C 410.425781 359.144531 406.855469 361.414062 403.132812 363.386719 C 400.035156 365.03125 396.839844 366.5 393.273438 368.257812 C 392.25 370.105469 390.898438 372.5625 388.980469 376.042969 Z M 388.984375 376.042969 " fill-opacity="1" fill-rule="nonzero"/><path fill="#000000" d="M 200.734375 380.707031 C 198.550781 381.667969 196.390625 382.691406 194.171875 383.578125 C 189.21875 385.566406 185.335938 383.097656 186.066406 377.769531 C 186.59375 373.921875 188.539062 370.214844 190.171875 366.59375 C 191.042969 364.660156 192.59375 363.039062 194.664062 360.109375 C 190.941406 360.71875 188.464844 361.074219 186.011719 361.527344 C 180.609375 362.527344 177.445312 359.410156 179.398438 354.335938 C 183.109375 344.679688 190.527344 338.726562 200.222656 335.640625 C 201.671875 335.179688 203.519531 335.976562 205.183594 336.195312 C 205.355469 336.664062 205.539062 337.128906 205.710938 337.59375 C 204.5625 338.765625 203.46875 340.003906 202.246094 341.089844 C 198.640625 344.304688 194.894531 347.371094 191.367188 350.667969 C 189.816406 352.117188 188.671875 354 186.855469 356.300781 C 193.449219 356.664062 198.9375 357.503906 204.375 353.902344 C 207.1875 352.03125 211.195312 351.878906 214.710938 351.238281 C 215.65625 351.070312 216.792969 351.976562 218.609375 352.6875 C 213.902344 356.460938 209.550781 359.574219 205.652344 363.1875 C 201.839844 366.726562 198.660156 370.882812 196.597656 376.386719 C 202.175781 375.707031 207.414062 376.277344 211.945312 372.898438 C 213.207031 371.960938 215.09375 371.867188 216.691406 371.378906 C 216.988281 371.761719 217.277344 372.144531 217.574219 372.519531 C 216.722656 373.960938 216.011719 375.519531 214.984375 376.824219 C 207.210938 386.699219 202.207031 397.730469 200.371094 410.226562 C 199.789062 414.1875 198.511719 418.050781 197.378906 422.667969 C 204.246094 422.253906 210.734375 420.695312 217.066406 418.367188 C 223.414062 416.03125 229.15625 412.550781 233.519531 407.410156 C 237.835938 402.316406 241.546875 396.710938 245.808594 390.941406 C 248.019531 394.433594 246.550781 397.050781 245.480469 399.503906 C 239.109375 414.058594 227.867188 422.730469 212.527344 426.195312 C 208.601562 427.082031 204.566406 427.433594 200.59375 428.097656 C 195.851562 428.894531 191.132812 429.761719 186.078125 430.652344 C 185.949219 430.101562 185.417969 428.957031 185.671875 428.75 C 188.910156 426.054688 188.082031 422.472656 188.238281 418.953125 C 188.8125 406.007812 191.914062 393.851562 200.242188 383.5 C 200.722656 382.902344 201.148438 382.269531 201.601562 381.65625 C 201.308594 381.339844 201.019531 381.023438 200.726562 380.707031 Z M 200.734375 380.707031 " fill-opacity="1" fill-rule="nonzero"/><path fill="#000000" d="M 178.496094 336.359375 C 179.503906 339.945312 177.570312 341.355469 176.019531 342.773438 C 171.710938 346.722656 167.269531 350.527344 162.933594 354.445312 C 150.066406 366.066406 137.097656 377.621094 126.695312 391.621094 C 111.953125 411.460938 101.84375 433.425781 97.136719 457.785156 C 96.8125 459.453125 96.117188 461.050781 94.324219 462.882812 C 93.730469 461.367188 92.953125 459.894531 92.566406 458.328125 C 90.878906 451.511719 91.746094 444.671875 92.8125 437.90625 C 94.316406 428.324219 96.789062 418.96875 101.210938 410.261719 C 113.285156 386.484375 129.269531 366.109375 152.289062 351.878906 C 159.320312 347.539062 166.183594 342.941406 173.191406 338.578125 C 174.726562 337.621094 176.5625 337.148438 178.507812 336.34375 Z M 178.496094 336.359375 " fill-opacity="1" fill-rule="nonzero"/><path fill="#000000" d="M 569.5 316.449219 C 568.058594 320.003906 564.875 320.398438 561.929688 320.675781 C 549.101562 321.886719 536.273438 323.320312 523.410156 323.910156 C 491.800781 325.359375 460.171875 326.386719 428.558594 327.589844 C 424.730469 327.738281 420.910156 328.03125 417.082031 328.066406 C 415.824219 328.082031 414.554688 327.511719 413.292969 327.207031 C 413.257812 326.753906 413.210938 326.304688 413.171875 325.851562 C 415.15625 325.402344 417.117188 324.777344 419.125 324.550781 C 429.535156 323.378906 440.007812 322.675781 450.359375 321.117188 C 462.5 319.292969 474.507812 316.578125 486.628906 314.613281 C 493.378906 313.519531 500.238281 312.742188 507.066406 312.574219 C 524.785156 312.136719 542.519531 310.839844 560.246094 312.433594 C 563.765625 312.75 567.664062 312.289062 569.503906 316.441406 Z M 569.5 316.449219 " fill-opacity="1" fill-rule="nonzero"/><path fill="#000000" d="M 232.269531 540.703125 C 231.792969 542.148438 231.636719 543.816406 230.796875 545 C 219.210938 561.25 205.007812 573.769531 184.410156 576.9375 C 176.4375 578.164062 168.6875 577.167969 161.382812 573.8125 C 152.53125 569.746094 144.609375 564.230469 137.601562 557.441406 C 129.972656 550.042969 126.449219 540.789062 125.84375 530.398438 C 125.667969 527.390625 125.507812 523.949219 129.3125 521.507812 C 130.039062 522.871094 130.90625 523.917969 131.15625 525.089844 C 131.824219 528.230469 132.027344 531.476562 132.761719 534.601562 C 134.214844 540.839844 137.234375 546.253906 142.179688 550.429688 C 149.988281 557.027344 158.851562 561.644531 168.730469 564.28125 C 179.03125 567.03125 188.824219 565.324219 197.855469 560.078125 C 207.25 554.628906 216.328125 548.625 225.546875 542.871094 C 227.363281 541.738281 229.195312 540.632812 231.015625 539.515625 C 231.4375 539.910156 231.851562 540.308594 232.269531 540.703125 Z M 232.269531 540.703125 " fill-opacity="1" fill-rule="nonzero"/><path fill="#000000" d="M 646.277344 228.589844 C 650.488281 229.667969 652.589844 232.132812 654.644531 234.570312 C 660.941406 242.039062 664.0625 250.941406 665.539062 260.402344 C 666.929688 269.347656 667.699219 278.378906 668.972656 287.34375 C 669.761719 292.910156 671.015625 298.414062 672.003906 303.960938 C 672.339844 305.835938 672.476562 307.746094 672.714844 309.714844 C 668.804688 310.691406 667.613281 308.320312 666.851562 306.160156 C 664.25 298.78125 661.246094 291.457031 659.65625 283.84375 C 657.804688 275.011719 657.203125 265.914062 656.210938 256.917969 C 655.238281 248.164062 652.628906 240.027344 647.792969 232.617188 C 647.144531 231.628906 646.925781 230.359375 646.285156 228.589844 Z M 646.277344 228.589844 " fill-opacity="1" fill-rule="nonzero"/><path fill="#000000" d="M 347.109375 415.714844 C 347.464844 417.402344 348.09375 419.082031 348.140625 420.785156 C 348.734375 444.753906 348.011719 468.648438 343.515625 492.285156 C 342.734375 496.417969 342.613281 496.390625 339.0625 498.757812 C 335.886719 497.320312 335.769531 494.445312 335.953125 491.613281 C 336.371094 484.988281 336.703125 478.347656 337.53125 471.773438 C 339.703125 454.429688 342.105469 437.113281 344.46875 419.796875 C 344.648438 418.480469 345.203125 417.226562 345.585938 415.941406 C 346.097656 415.863281 346.605469 415.785156 347.117188 415.707031 Z M 347.109375 415.714844 " fill-opacity="1" fill-rule="nonzero"/><path fill="#000000" d="M 299.558594 411.238281 C 306.601562 413.320312 309.265625 419.019531 313.796875 422.847656 C 320.101562 410.347656 313.984375 399.257812 310.226562 387.988281 C 310.6875 387.726562 311.140625 387.476562 311.597656 387.21875 C 312.664062 388.070312 314.015625 388.730469 314.753906 389.808594 C 323.429688 402.582031 325.679688 416.386719 321.101562 431.195312 C 320.175781 434.195312 318.613281 436.75 315.101562 437.246094 C 311.695312 437.734375 308.949219 436.226562 307.511719 433.40625 C 304.609375 427.695312 302.121094 421.765625 299.617188 415.871094 C 299.203125 414.894531 299.558594 413.585938 299.558594 411.246094 Z M 299.558594 411.238281 " fill-opacity="1" fill-rule="nonzero"/><path fill="#000000" d="M 315.058594 496.5 C 311.429688 494.378906 311.558594 491.230469 311.890625 488.25 C 313.148438 476.867188 314.527344 465.5 315.988281 454.136719 C 316.445312 450.554688 317.234375 447.011719 317.984375 443.476562 C 318.257812 442.1875 318.859375 440.980469 320.234375 439.742188 C 320.617188 441.199219 321.269531 442.648438 321.339844 444.117188 C 322.085938 459 322.257812 473.886719 319.976562 488.675781 C 319.5 491.761719 319.089844 495.175781 315.058594 496.492188 Z M 315.058594 496.5 " fill-opacity="1" fill-rule="nonzero"/><path fill="#000000" d="M 301.539062 483.035156 C 298.984375 481.480469 298.382812 478.777344 298.601562 476.28125 C 299.664062 464.476562 300.988281 452.703125 302.328125 440.925781 C 302.417969 440.117188 303.335938 439.402344 304.785156 437.332031 C 305.578125 441.675781 306.601562 444.714844 306.601562 447.75 C 306.601562 456.796875 306.347656 465.847656 305.902344 474.882812 C 305.6875 479.15625 304.945312 479.976562 301.539062 483.035156 Z M 301.539062 483.035156 " fill-opacity="1" fill-rule="nonzero"/><path fill="#000000" d="M 287.683594 483.582031 C 284.269531 476.226562 285.542969 450.5625 289.320312 443.007812 C 291.757812 446.460938 292.34375 454.636719 291.324219 472.742188 C 291.117188 476.421875 291.375 480.347656 287.683594 483.582031 Z M 287.683594 483.582031 " fill-opacity="1" fill-rule="nonzero"/><path fill="#000000" d="M 154.863281 529.945312 C 159.855469 536.023438 164.898438 542.070312 169.773438 548.238281 C 170.355469 548.976562 170.050781 550.417969 170.191406 551.859375 C 165.480469 552.984375 163.210938 549.75 161.019531 547.230469 C 156.902344 542.515625 152.699219 537.652344 153.054688 530.875 L 154.863281 529.9375 Z M 154.863281 529.945312 " fill-opacity="1" fill-rule="nonzero"/><path fill="#000000" d="M 203.390625 293.867188 C 207.375 289.960938 215.570312 287.207031 223.046875 287.058594 C 221.746094 290.9375 218.25 291.726562 215.332031 292.773438 C 211.757812 294.0625 208.078125 296.34375 203.390625 293.867188 Z M 203.390625 293.867188 " fill-opacity="1" fill-rule="nonzero"/></svg>