<svg xmlns="http://www.w3.org/2000/svg" xmlns:xlink="http://www.w3.org/1999/xlink" width="1080" zoomAndPan="magnify" viewBox="0 0 810 809.999993" height="1080" preserveAspectRatio="xMidYMid meet" version="1.0"><path fill="#000000" d="M 521.285156 370.648438 C 523.363281 370.273438 534.53125 356.550781 532.535156 323.183594 C 531.582031 307.214844 524.765625 275.992188 523.128906 276.285156 C 521.480469 276.574219 531.136719 323.097656 525.429688 353.601562 C 523.074219 366.242188 519.207031 371.007812 521.285156 370.632812 Z M 521.285156 370.648438 " fill-opacity="1" fill-rule="nonzero"/><path fill="#000000" d="M 414.429688 286.113281 C 412.53125 286.445312 419.335938 331.046875 426.761719 352.3125 C 429.253906 359.488281 432.164062 366.589844 436.445312 372.847656 C 440.726562 379.121094 453.332031 389.796875 453.859375 388.050781 C 454.730469 385.128906 441.238281 382.015625 427.203125 336.046875 C 420.761719 314.941406 416.328125 285.769531 414.429688 286.101562 Z M 414.429688 286.113281 " fill-opacity="1" fill-rule="nonzero"/><path fill="#000000" d="M 516.867188 381.683594 C 515.746094 380.808594 505.4375 391.679688 492.691406 395.140625 C 479.558594 398.714844 466.214844 392.703125 465.855469 393.742188 C 465.109375 395.902344 472.132812 400.222656 478.40625 402.3125 C 485.433594 404.652344 493.261719 404.210938 499.921875 401.550781 C 508.777344 398.019531 519.015625 383.371094 516.867188 381.683594 Z M 516.867188 381.683594 " fill-opacity="1" fill-rule="nonzero"/><path fill="#000000" d="M 507.210938 209.019531 C 509.664062 206.46875 508.234375 201.914062 504.523438 199.894531 C 497.527344 196.070312 488.6875 196.308594 480.734375 195.878906 C 472.796875 195.449219 464.015625 195.378906 456.074219 194.976562 C 431.097656 193.691406 413.558594 180.550781 404.011719 181.988281 C 399.355469 182.695312 396.710938 187.042969 400.757812 192.179688 C 407.28125 200.460938 418.78125 206.441406 438.714844 211.59375 C 446.28125 213.546875 494.660156 222.007812 507.210938 209.019531 Z M 406.617188 192.234375 C 405.175781 190.351562 403.832031 186.78125 406.117188 185.757812 C 408.542969 184.664062 411.785156 185.464844 414.292969 186.253906 C 423.976562 189.328125 432.675781 192.234375 442.707031 194.242188 C 461.535156 198.023438 506.546875 194.644531 501.835938 207.867188 C 499.078125 215.636719 460.453125 215.71875 442.484375 211.164062 C 437.234375 209.835938 431.429688 208.324219 426.566406 206.097656 C 417.878906 202.109375 411.921875 199.160156 406.617188 192.234375 Z M 406.617188 192.234375 " fill-opacity="1" fill-rule="nonzero"/><path fill="#000000" d="M 625.511719 636.457031 C 624.5 630.738281 621.785156 625.488281 608.898438 623.34375 C 589.78125 620.160156 569.707031 623.066406 550.824219 624.9375 C 547.277344 619.300781 543.953125 612.988281 542.34375 606.714844 C 525.761719 541.527344 509.675781 446.691406 517.144531 413.210938 C 520.675781 397.371094 532.160156 388.21875 541.320312 362.074219 C 545.363281 350.542969 546.472656 332.210938 543.773438 316.949219 C 537.523438 281.765625 526.785156 258.074219 513.085938 202.746094 C 507.40625 179.816406 489.242188 111.402344 486.292969 107.359375 C 483.339844 103.316406 386.554688 118.378906 385.390625 123.945312 C 385.019531 125.730469 386.375 137.308594 388.550781 153.9375 C 386.570312 152.996094 384.074219 152.359375 382.300781 151.832031 C 355.023438 143.761719 311.660156 139.261719 298.804688 140.671875 C 292.363281 141.378906 293.289062 146.183594 290.835938 156.386719 C 278.257812 208.742188 269.613281 252.59375 256.785156 301.347656 C 250.3125 325.9375 242.042969 350.820312 244.996094 376.074219 C 249.425781 414.070312 274.90625 436.25 279.074219 446.96875 C 280.445312 450.5 284.324219 460.746094 284.324219 477.417969 C 284.355469 511.394531 279.769531 565.023438 274.878906 597.660156 C 271.277344 621.722656 265.804688 651.1875 256.671875 669.632812 C 240.1875 668.953125 221.011719 667.652344 204.941406 670.753906 C 198.75 671.945312 190.035156 674.769531 187.113281 679.949219 C 184.132812 685.222656 183.855469 691.371094 187.429688 696.273438 C 192.015625 702.574219 210.371094 712.308594 229.824219 717.140625 C 249.871094 722.109375 269.945312 726.179688 290.574219 727.109375 C 311.203125 728.023438 340.738281 724.242188 349.34375 715.132812 C 352.292969 712.015625 352.515625 707.238281 352.433594 703.582031 C 352.351562 699.414062 350.285156 696.382812 347.527344 694.15625 C 334.617188 683.726562 310.773438 678.882812 290.976562 674.175781 C 286.75 647.0625 290.378906 611.878906 293.082031 583.160156 C 296.449219 547.535156 302.503906 515.175781 311.175781 480.449219 C 312.742188 474.203125 318.378906 462.308594 321.761719 458.003906 C 328.050781 450 348.734375 437.371094 359.914062 426.074219 C 378.035156 407.78125 382.398438 380.089844 383.894531 354.390625 C 387 301.070312 390.019531 210.722656 391.167969 173.792969 C 395.78125 208.117188 401.851562 252.621094 404.523438 282.265625 C 407.238281 312.449219 408.390625 352.785156 422.910156 375.824219 C 437.816406 399.476562 460.148438 405.386719 472.785156 419.550781 C 481.941406 429.8125 498.207031 472.613281 504.398438 501.34375 C 512.351562 538.242188 520.164062 575.3125 523.183594 612.945312 C 523.640625 618.582031 523.960938 624.300781 523.058594 629.867188 C 508.457031 633.867188 492.457031 639.183594 478.714844 647.007812 C 473.988281 649.695312 467.863281 653.875 465.910156 658.929688 C 464.554688 662.460938 464.457031 668.828125 467.4375 674.105469 C 468.960938 676.789062 475.816406 681.207031 484.988281 682.523438 C 525.097656 688.3125 566.785156 681.414062 603.523438 664.34375 C 608.925781 661.835938 617.574219 656.574219 621.882812 652.460938 C 626.191406 648.351562 626.410156 641.703125 625.496094 636.457031 Z M 379.683594 351.761719 C 377.46875 373.652344 371.9375 395.972656 358.847656 413.667969 C 347.832031 428.566406 319.28125 446.386719 315.027344 452.328125 C 310.773438 458.265625 307.699219 465.660156 306.203125 473.195312 C 295.394531 527.761719 288.425781 583.078125 285.351562 638.617188 C 284.632812 651.5625 284.132812 664.648438 286.347656 677.429688 C 287.375 683.394531 289.757812 690.140625 295.507812 692.105469 C 293.648438 687.246094 292.292969 681.816406 291.292969 676.015625 C 304.027344 678.4375 324.808594 685.761719 331.359375 689.046875 C 337.925781 692.328125 348.554688 698.417969 347.972656 703.085938 C 347.390625 707.738281 340.976562 709.621094 338.261719 710.757812 C 324.570312 716.417969 291.417969 717.527344 266.175781 713.691406 C 203.097656 704.109375 189.714844 686.582031 190.171875 682.773438 C 190.671875 678.578125 195.882812 675.488281 201.617188 674.269531 C 219.101562 670.53125 238.164062 670.558594 255.773438 671.40625 C 254.25 674.285156 252.628906 676.875 250.894531 679.0625 C 247.738281 679.214844 244.996094 679.074219 242.03125 680.15625 C 239.921875 680.917969 237.789062 681.566406 237.527344 683.796875 C 237.234375 686.304688 240.0625 688.449219 242.304688 689.625 C 250.480469 693.945312 268.671875 697.242188 274.449219 694.679688 C 257.699219 691.054688 254.609375 687.757812 254.261719 685.375 C 264.347656 671.890625 268.585938 655.011719 271.898438 638.492188 C 280.917969 593.378906 284.644531 547.394531 288.359375 501.539062 C 289.617188 485.945312 292.554688 463.777344 289.671875 450.832031 C 286.792969 437.886719 278.132812 428.496094 270.292969 418.375 C 256.894531 401.125 249.675781 379.191406 250.191406 357.367188 C 250.507812 344.007812 252.933594 330.785156 255.9375 317.753906 C 270.554688 254.40625 297.210938 150.460938 299.871094 145.378906 C 303.320312 138.777344 386.292969 152.691406 384.476562 157.660156 C 383.867188 159.351562 376.691406 159.15625 371.359375 158.964844 C 346.726562 158.0625 310.261719 151.820312 304.191406 146.625 C 302.65625 148.523438 319.347656 154.710938 341.238281 158.394531 C 349.746094 159.820312 375.25 163.214844 385.140625 162.148438 C 387.496094 225.164062 386.042969 288.757812 379.671875 351.746094 Z M 604.660156 653.042969 C 600.144531 655.480469 595.390625 657.460938 590.515625 659.082031 C 557.902344 669.867188 520.941406 678.339844 484.171875 672.679688 C 479.738281 672 468.988281 668.746094 469.238281 662.085938 C 469.332031 659.621094 471.273438 655.328125 477.050781 651.589844 C 487.746094 644.652344 508.96875 637.398438 522.421875 633.1875 C 521.09375 638.933594 519.015625 645.222656 514.179688 648.308594 C 520.011719 648.753906 525.652344 642.578125 527.273438 637.21875 C 528.890625 631.84375 528.65625 626.085938 527.976562 620.519531 C 521.191406 564.34375 511.007812 518.957031 498.980469 464.871094 C 495.585938 449.613281 488.828125 427.792969 482.121094 417.65625 C 475.414062 407.519531 460.4375 400.417969 447.734375 390.988281 C 423.367188 372.902344 419.292969 352.382812 415.09375 329.46875 C 409.039062 296.457031 405.023438 268.902344 401.949219 238.34375 C 398.25 201.472656 395.394531 165.484375 391.679688 128.597656 C 400.105469 131.933594 480.238281 118.128906 477.660156 111.609375 C 473.835938 117.285156 393.59375 128.984375 393.816406 125.523438 C 394.21875 119.210938 479.28125 106.570312 480.125 109.394531 C 480.984375 112.21875 501.972656 176.1875 511.824219 208.132812 C 521.6875 240.132812 530.097656 272.519531 535.195312 305.609375 C 536.804688 316.035156 538.410156 329.300781 537.84375 339.824219 C 536.429688 366.078125 528.046875 375.132812 512.78125 401.457031 C 507.488281 410.578125 505.882812 424.660156 507.238281 435.488281 C 514.46875 493.089844 524.707031 546.566406 537.398438 601.328125 C 540.902344 616.476562 546.335938 632.480469 558.527344 642.148438 C 559.703125 646.773438 542.800781 651.328125 534.171875 652.601562 C 534.960938 654.71875 552.914062 652.960938 565.175781 647.367188 C 568.128906 646.023438 574.5 640.386719 570.425781 638.835938 C 562.960938 637.953125 556.726562 633.894531 552.554688 627.636719 C 570.496094 625.726562 590.140625 623.71875 607.679688 627.636719 C 613.902344 629.019531 621.242188 631.277344 621.105469 636.996094 C 620.96875 642.714844 610.546875 649.902344 604.632812 653.085938 Z M 604.660156 653.042969 " fill-opacity="1" fill-rule="nonzero"/><path fill="#000000" d="M 304.34375 423.761719 C 280.128906 417.640625 275.308594 407.78125 272.9375 409.347656 C 270.570312 410.914062 284.214844 430.835938 300.839844 433.164062 C 322.5625 436.210938 339.0625 423.375 337.289062 421.074219 C 335.515625 418.777344 325.097656 428.996094 304.359375 423.746094 Z M 304.34375 423.761719 " fill-opacity="1" fill-rule="nonzero"/><path fill="#000000" d="M 376.332031 308.421875 C 373.988281 308.0625 370.554688 363.667969 358.75 392.828125 C 351.046875 411.839844 346.585938 413.15625 346.667969 414.441406 C 346.890625 418.125 357.585938 407.5625 362.503906 397.566406 C 375.652344 370.828125 378.6875 308.796875 376.332031 308.433594 Z M 376.332031 308.421875 " fill-opacity="1" fill-rule="nonzero"/><path fill="#000000" d="M 267.464844 293.230469 C 265.386719 292.914062 256.589844 330.464844 254.511719 353.753906 C 253.917969 360.46875 254.457031 371.269531 256.230469 377.777344 C 258.433594 385.824219 265.621094 400.859375 267.6875 398.894531 C 267.6875 398.894531 264.167969 391.875 261.507812 373.761719 C 260.246094 365.191406 259.484375 352.9375 260.925781 337.902344 C 262.742188 318.945312 269.53125 293.550781 267.453125 293.230469 Z M 267.464844 293.230469 " fill-opacity="1" fill-rule="nonzero"/><path fill="#000000" d="M 378.214844 218.847656 C 375.832031 218.765625 373.449219 219.445312 371.300781 220.46875 C 363.390625 224.25 358.125 227.722656 351.351562 228.859375 C 334.1875 231.738281 328.910156 230.382812 316.898438 229.46875 C 304.886719 228.554688 296.476562 226.949219 283.980469 230.050781 C 280.058594 231.019531 278.0625 232.445312 277.703125 234.757812 C 277.425781 236.613281 278.4375 238.621094 281.042969 239.964844 C 297.347656 248.453125 323.0625 248.714844 333.066406 248.617188 C 340.988281 248.535156 351.378906 247.734375 362.378906 243.539062 C 369.890625 240.671875 376.609375 237.515625 381.804688 231.710938 C 384.296875 228.941406 385.199219 224.984375 384.035156 222.28125 C 383.105469 220.121094 380.597656 218.917969 378.214844 218.835938 Z M 368.851562 238.109375 C 355.953125 245.847656 345.410156 247.082031 336.859375 247.675781 C 312.960938 249.339844 286.710938 242.332031 284.671875 236.808594 C 282.996094 232.265625 294.992188 230.9375 299.664062 230.5625 C 319.085938 229.027344 328.050781 235.117188 357.78125 228.886719 C 365.621094 227.238281 373.753906 221.410156 377.425781 224.25 C 380.710938 226.796875 376.441406 233.539062 368.851562 238.109375 Z M 368.851562 238.109375 " fill-opacity="1" fill-rule="nonzero"/><path fill="#000000" d="M 386.972656 107.414062 C 388.328125 106.804688 393.136719 85.6875 392.957031 84.054688 C 392.777344 82.421875 385.710938 81.878906 384.753906 82.699219 C 383.796875 83.515625 383.6875 106.691406 384.421875 107.496094 C 384.421875 107.496094 385.847656 107.910156 386.972656 107.414062 Z M 386.972656 107.414062 " fill-opacity="1" fill-rule="nonzero"/><path fill="#000000" d="M 367.019531 85.921875 C 368.144531 86.410156 376.011719 107.121094 375.972656 108.394531 C 375.957031 108.964844 375.179688 109.890625 373.933594 109.917969 C 372.464844 109.945312 359.304688 90.355469 360.082031 89.578125 C 360.855469 88.804688 365.914062 85.4375 367.035156 85.921875 Z M 367.019531 85.921875 " fill-opacity="1" fill-rule="nonzero"/><path fill="#000000" d="M 368.601562 115.179688 C 362.089844 109.601562 354.71875 104.5625 353.167969 104.351562 C 351.617188 104.144531 349.164062 109.242188 349.355469 110.113281 C 349.550781 110.984375 366.855469 117.246094 367.699219 117.078125 C 368.546875 116.910156 368.792969 115.886719 368.65625 115.292969 " fill-opacity="1" fill-rule="nonzero"/></svg>