<svg xmlns="http://www.w3.org/2000/svg" xmlns:xlink="http://www.w3.org/1999/xlink" width="1080" zoomAndPan="magnify" viewBox="0 0 810 809.999993" height="1080" preserveAspectRatio="xMidYMid meet" version="1.0"><path fill="#231313" d="M 391.34375 87.785156 C 362.941406 102.03125 334.457031 116.328125 307.945312 133.871094 C 297.753906 140.613281 287.765625 147.917969 279.804688 157.1875 C 268.085938 170.839844 261.222656 188.585938 260.6875 206.574219 C 262.265625 194.152344 263.835938 181.738281 265.417969 169.3125 C 265.925781 165.292969 266.480469 161.140625 268.550781 157.664062 C 271.097656 153.394531 275.566406 150.710938 279.847656 148.207031 C 314.835938 127.757812 349.816406 107.300781 384.804688 86.851562 C 389.527344 84.085938 394.523438 81.25 399.992188 81.109375 C 403.308594 81.03125 406.558594 81.953125 409.742188 82.875 C 418.664062 85.449219 427.582031 88.011719 436.5 90.585938 C 376.78125 123.035156 320.007812 160.894531 267.085938 203.546875 C 265.3125 204.976562 261.160156 204.398438 262.582031 202.605469 C 271.542969 194.222656 280.523438 185.828125 290.269531 178.367188 C 333 145.660156 389.757812 131.402344 424.753906 90.515625 C 418.652344 91.621094 412.21875 90.8125 406.59375 88.203125 C 404.144531 87.082031 401.757812 85.597656 399.0625 85.457031 C 396.347656 85.308594 393.777344 86.5625 391.34375 87.785156 " fill-opacity="1" fill-rule="nonzero"/><path fill="#231313" d="M 269.5 161.78125 C 283.9375 164.609375 298.652344 166.054688 313.371094 166.117188 C 301.308594 163.921875 289.25 161.726562 277.1875 159.53125 C 273.722656 158.902344 268.648438 159.523438 268.71875 163.042969 L 269.5 161.78125 " fill-opacity="1" fill-rule="nonzero"/><path fill="#231313" d="M 329.847656 121.253906 C 345.789062 122.128906 361.648438 124.527344 377.132812 128.398438 C 364.511719 124.464844 351.890625 120.53125 339.273438 116.609375 C 338.230469 116.28125 337.140625 115.949219 336.0625 116.125 C 332.578125 116.667969 331.023438 121.917969 327.496094 121.804688 C 327.390625 120.566406 327.285156 119.320312 327.179688 118.074219 L 329.847656 121.253906 " fill-opacity="1" fill-rule="nonzero"/><path fill="#231313" d="M 261.351562 209.234375 C 303.53125 207.128906 345.859375 208.148438 387.878906 212.28125 C 397.453125 170.550781 425.34375 134.625 433.691406 92.628906 C 429.617188 95.246094 425.554688 97.855469 421.480469 100.46875 C 369.382812 134 318.023438 168.699219 267.480469 204.519531 C 320.859375 170.886719 374.253906 137.25 427.640625 103.613281 C 409.964844 137.433594 394.558594 172.4375 381.585938 208.332031 C 375.351562 202.835938 366.277344 201.871094 358.035156 202.886719 C 349.789062 203.90625 341.8125 206.621094 333.550781 207.472656 C 319.164062 208.953125 304.804688 204.742188 290.347656 204.441406 C 280.496094 204.230469 270.605469 205.875 261.351562 209.234375 " fill-opacity="1" fill-rule="nonzero"/><path fill="#231313" d="M 329.410156 119.222656 C 322.625 132.878906 318.199219 147.707031 316.398438 162.851562 C 323.394531 147.546875 329.328125 131.753906 334.140625 115.625 C 332.324219 116.132812 330.503906 116.644531 328.679688 117.152344 L 329.410156 119.222656 " fill-opacity="1" fill-rule="nonzero"/><path fill="#231313" d="M 387.484375 85.90625 C 384.007812 99.164062 381.15625 112.578125 378.914062 126.097656 C 382.332031 122.753906 383.761719 117.941406 385.070312 113.351562 C 387.894531 103.402344 390.722656 93.457031 393.539062 83.507812 C 390.378906 84.464844 387.4375 86.175781 385.050781 88.460938 L 387.484375 85.90625 " fill-opacity="1" fill-rule="nonzero"/><path fill="#231313" d="M 376.976562 148.917969 C 380.59375 167.117188 381.910156 185.777344 380.890625 204.308594 C 376.738281 198.910156 370.839844 195.1875 365.074219 191.578125 C 351.386719 183.019531 337.703125 174.46875 324.027344 165.90625 C 322.746094 168.707031 320.121094 170.851562 317.128906 171.550781 C 324.046875 172.394531 330.261719 176.039062 336.246094 179.59375 C 351.730469 188.796875 367.207031 197.996094 382.691406 207.199219 C 382.085938 181.675781 380.953125 156.171875 379.3125 130.699219 C 374.578125 135.035156 375.730469 142.621094 376.976562 148.917969 " fill-opacity="1" fill-rule="nonzero"/><path fill="#231313" d="M 374.605469 210.753906 C 378.820312 215.671875 386.703125 217.648438 392.046875 213.984375 C 397.394531 210.324219 397.683594 200.796875 391.933594 197.820312 C 389.582031 201.230469 394.804688 206.574219 392.074219 209.691406 C 391.25 210.640625 389.933594 210.964844 388.6875 211.203125 C 384.164062 212.0625 379.53125 212.316406 374.949219 211.976562 C 375.246094 213.144531 376.246094 214.101562 377.421875 214.355469 L 374.605469 210.753906 " fill-opacity="1" fill-rule="nonzero"/><path fill="#231313" d="M 375.160156 215.996094 C 373.71875 217.847656 374.859375 220.808594 376.914062 221.949219 C 378.976562 223.089844 381.515625 222.855469 383.796875 222.257812 C 393.1875 219.796875 400.738281 211.386719 402.167969 201.78125 C 399.632812 201.246094 397.09375 200.710938 394.558594 200.183594 C 398.761719 201.132812 400.554688 206.671875 398.921875 210.648438 C 397.28125 214.636719 393.339844 217.171875 389.378906 218.851562 C 386.886719 219.914062 384.078125 220.738281 381.496094 219.902344 C 378.925781 219.078125 376.96875 215.945312 378.273438 213.566406 C 376.152344 214.636719 374.851562 217.128906 375.195312 219.472656 C 376.351562 219.078125 377.519531 218.691406 378.6875 218.296875 L 375.160156 215.996094 " fill-opacity="1" fill-rule="nonzero"/><path fill="#231313" d="M 400.597656 207.953125 C 399.015625 205.8125 401.695312 203.132812 404.019531 201.90625 C 446.882812 179.007812 497.714844 170.902344 545.320312 180.675781 C 592.914062 190.457031 636.792969 218.324219 664.777344 258.070312 C 669.648438 264.988281 674.046875 272.230469 678.164062 279.632812 C 680.824219 284.4375 683.394531 289.308594 685.800781 294.285156 C 673.371094 270.117188 652.691406 251.203125 632.5 232.914062 C 619.722656 221.351562 606.84375 209.710938 591.992188 200.992188 C 563.472656 184.25 529.089844 179.347656 496.136719 182.316406 C 463.183594 185.300781 431.347656 195.734375 400.597656 207.953125 " fill-opacity="1" fill-rule="nonzero"/><path fill="#231313" d="M 689.109375 301.363281 C 688.1875 299.300781 687.222656 297.238281 686.238281 295.191406 C 686.496094 295.675781 686.738281 296.15625 686.976562 296.640625 C 687.722656 298.203125 688.460938 299.785156 689.109375 301.363281 " fill-opacity="1" fill-rule="nonzero"/><path fill="#231313" d="M 449.527344 578.132812 C 449.253906 578.730469 449 579.308594 448.753906 579.878906 C 447.417969 579.503906 446.109375 579.117188 444.785156 578.710938 C 433.890625 575.507812 423.105469 571.847656 412.402344 568.148438 C 403.019531 564.882812 393.574219 561.554688 384.929688 556.65625 C 361.683594 543.53125 346 520.441406 332.507812 497.402344 C 325.363281 485.1875 318.578125 472.695312 313.160156 459.628906 C 300.84375 429.964844 295.875 397.328125 298.457031 365.335938 C 298.484375 365.203125 298.484375 365.078125 298.5 364.949219 C 299.246094 355.835938 300.617188 346.773438 302.601562 337.851562 C 303.101562 335.570312 303.644531 333.3125 304.242188 331.066406 C 304.257812 330.925781 304.292969 330.792969 304.339844 330.664062 C 315.453125 288.238281 340.800781 249.683594 375.308594 222.644531 C 377.738281 220.710938 383.058594 220.5625 382.171875 223.546875 C 366.890625 230.527344 357.085938 245.460938 348.105469 259.667969 C 337.582031 276.28125 327.019531 293.050781 318.925781 310.917969 C 318.707031 311.382812 318.496094 311.863281 318.304688 312.347656 C 316.652344 316.042969 315.125 319.785156 313.722656 323.601562 C 312.835938 325.992188 312.011719 328.40625 311.253906 330.828125 C 310.527344 333.085938 309.851562 335.359375 309.226562 337.632812 C 306.824219 346.40625 305.128906 355.332031 304.101562 364.332031 C 304.066406 364.5625 304.050781 364.789062 304.03125 365.027344 C 298.097656 418.882812 315.917969 475.433594 348.542969 519.4375 C 355.25 528.472656 362.589844 537.128906 371.453125 544.050781 C 383.3125 553.304688 397.410156 559.105469 411.386719 564.601562 C 422.621094 569.027344 433.953125 573.332031 445.480469 576.894531 C 446.820312 577.324219 448.171875 577.746094 449.527344 578.132812 " fill-opacity="1" fill-rule="nonzero"/><path fill="#231313" d="M 476.132812 584.164062 C 476.402344 584.199219 476.691406 584.242188 476.964844 584.277344 C 476.691406 584.988281 476.421875 585.683594 476.15625 586.378906 C 474.789062 586.148438 473.4375 585.875 472.085938 585.605469 C 472.320312 584.953125 472.550781 584.277344 472.761719 583.601562 C 473.875 583.8125 475.015625 583.988281 476.132812 584.164062 " fill-opacity="1" fill-rule="nonzero"/><path fill="#231313" d="M 706.804688 412.113281 C 704.03125 427.847656 698.617188 443.011719 692.042969 457.566406 C 675.609375 493.835938 651.320312 526.953125 619.625 551.066406 C 587.945312 575.199219 548.65625 589.984375 508.820312 589.652344 C 504.230469 589.617188 499.683594 589.390625 495.136719 588.984375 C 492.378906 588.746094 489.640625 588.441406 486.910156 588.082031 C 487.023438 587.746094 487.140625 587.421875 487.253906 587.097656 C 487.445312 586.554688 487.640625 586.035156 487.816406 585.492188 C 490.589844 585.726562 493.378906 585.875 496.179688 585.9375 C 535.910156 587.035156 575.882812 574.042969 608.617188 551.285156 C 646.886719 524.679688 675.566406 485.460938 692.953125 442.203125 C 697.054688 432.007812 700.566406 421.515625 702.550781 410.726562 C 706.226562 390.585938 704.472656 369.820312 701.46875 349.566406 C 699.039062 333.183594 695.746094 316.738281 689.207031 301.558594 C 704.9375 336.421875 713.433594 374.765625 706.804688 412.113281 " fill-opacity="1" fill-rule="nonzero"/><path fill="#231313" d="M 321.683594 361.015625 C 321.585938 361.734375 321.507812 362.464844 321.445312 363.191406 C 321.367188 363.886719 321.296875 364.5625 321.234375 365.253906 C 321.0625 367.203125 320.910156 369.136719 320.796875 371.078125 C 320.867188 369.136719 320.992188 367.203125 321.15625 365.253906 C 321.234375 364.578125 321.316406 363.886719 321.367188 363.191406 C 321.472656 362.464844 321.5625 361.75 321.683594 361.015625 " fill-opacity="1" fill-rule="nonzero"/><path fill="#231313" d="M 398.492188 233.496094 C 385.910156 250.476562 373.308594 267.457031 360.703125 284.4375 C 353.722656 293.867188 346.65625 303.480469 340.484375 313.507812 C 339.53125 315.007812 338.617188 316.527344 337.730469 318.054688 C 335 322.714844 332.472656 327.476562 330.277344 332.355469 C 329.488281 334.085938 328.734375 335.824219 328.039062 337.582031 C 325.203125 344.648438 323.070312 351.980469 321.878906 359.59375 C 321.816406 359.917969 321.78125 360.222656 321.738281 360.550781 C 322.625 352.804688 323.976562 345.132812 325.84375 337.5625 C 326.214844 336 326.617188 334.4375 327.039062 332.890625 C 327.136719 332.550781 327.230469 332.214844 327.328125 331.875 C 328.652344 327.089844 330.179688 322.347656 331.9375 317.703125 C 332.585938 315.929688 333.261719 314.15625 333.992188 312.425781 C 347.0625 280.40625 369.4375 252.109375 398.492188 233.496094 " fill-opacity="1" fill-rule="nonzero"/><path fill="#231313" d="M 455.960938 559.6875 C 455.878906 559.992188 455.785156 560.300781 455.707031 560.609375 C 453.992188 560.203125 452.28125 559.800781 450.578125 559.351562 C 417.144531 550.757812 385.945312 534.839844 363.554688 509.027344 C 350.167969 493.589844 340.433594 475.222656 333.4375 456.003906 C 323.589844 429.015625 319.078125 399.953125 320.796875 371.304688 C 320.410156 383.21875 322.007812 395.210938 324.300781 406.949219 C 330.890625 440.699219 343.417969 473.714844 364.152344 501.140625 C 384.894531 528.570312 414.300781 550.144531 447.753906 558.027344 C 448.734375 558.253906 449.734375 558.492188 450.738281 558.683594 C 452.476562 559.070312 454.203125 559.398438 455.960938 559.6875 " fill-opacity="1" fill-rule="nonzero"/><path fill="#231313" d="M 483.515625 562.152344 C 483.269531 563.25 483.011719 564.332031 482.75 565.410156 C 481.144531 565.21875 479.546875 565.007812 477.949219 564.769531 C 478.160156 563.847656 478.351562 562.898438 478.527344 561.976562 C 480.179688 562.058594 481.835938 562.109375 483.515625 562.152344 " fill-opacity="1" fill-rule="nonzero"/><path fill="#231313" d="M 672.230469 431.585938 C 661.019531 462.476562 642.5 490.238281 621.960938 515.910156 C 612.59375 527.632812 602.613281 539.113281 590.296875 547.691406 C 565.105469 565.253906 532.84375 568.835938 502.035156 567.140625 C 500.457031 567.042969 498.875 566.949219 497.296875 566.832031 C 496.277344 566.753906 495.265625 566.683594 494.25 566.605469 C 494.730469 565.140625 495.171875 563.671875 495.617188 562.207031 C 498.234375 562.1875 500.859375 562.152344 503.484375 562.09375 C 504.246094 562.074219 505.019531 562.058594 505.792969 562.03125 C 525.640625 561.53125 546.046875 560.335938 564.070312 552.011719 C 581.625 543.898438 595.519531 529.695312 608.90625 515.714844 C 634.308594 489.210938 660.285156 461.210938 671.292969 426.171875 C 683.816406 386.378906 675.066406 342.453125 657.105469 304.8125 C 648.820312 287.464844 638.503906 270.863281 624.828125 257.359375 C 614.59375 247.253906 602.585938 239.007812 589.894531 232.238281 C 532.195312 201.570312 458.539062 203.40625 402.441406 236.882812 C 407.742188 225.496094 420.882812 220.34375 432.953125 216.855469 C 476.289062 204.308594 523.847656 199.664062 565.894531 216.03125 C 594.589844 227.207031 618.976562 247.523438 639.304688 270.652344 C 655.851562 289.484375 670.246094 310.765625 677.480469 334.78125 C 686.960938 366.257812 683.449219 400.683594 672.230469 431.585938 " fill-opacity="1" fill-rule="nonzero"/><path fill="#231313" d="M 460.859375 529.441406 C 460.8125 530.195312 460.777344 530.949219 460.71875 531.714844 C 458.601562 531.097656 456.476562 530.421875 454.398438 529.710938 C 416.496094 516.8125 383.332031 489.429688 365.695312 453.363281 C 353.222656 427.847656 348.949219 398.855469 352.144531 370.671875 C 352.167969 370.539062 352.1875 370.398438 352.203125 370.269531 C 353.1875 361.734375 354.863281 353.246094 357.21875 344.980469 C 357.347656 344.535156 357.472656 344.070312 357.601562 343.628906 C 359.816406 336.113281 362.570312 328.765625 365.871094 321.699219 C 366.066406 321.277344 366.257812 320.847656 366.453125 320.425781 C 373.632812 305.332031 383.253906 291.46875 395.164062 279.675781 C 388.378906 292.59375 381.574219 305.480469 374.773438 318.398438 C 374.019531 319.828125 373.273438 321.25 372.515625 322.679688 C 372.175781 323.347656 371.824219 324.007812 371.5 324.683594 C 368.066406 331.277344 364.808594 337.941406 362.148438 344.867188 C 361.921875 345.4375 361.703125 346.035156 361.492188 346.617188 C 361.167969 347.484375 360.859375 348.355469 360.570312 349.242188 C 350.464844 379.214844 354.382812 412.949219 367.910156 441.542969 C 381.445312 470.132812 404.019531 493.835938 429.941406 511.957031 C 437.710938 517.394531 445.917969 522.371094 454.476562 526.535156 C 456.574219 527.550781 458.714844 528.519531 460.859375 529.441406 " fill-opacity="1" fill-rule="nonzero"/><path fill="#231313" d="M 483.222656 536.535156 C 482.722656 536.480469 482.242188 536.402344 481.757812 536.339844 C 481.785156 536.304688 481.785156 536.261719 481.757812 536.226562 C 482.242188 536.339844 482.75 536.4375 483.222656 536.535156 " fill-opacity="1" fill-rule="nonzero"/><path fill="#231313" d="M 487.234375 537.035156 C 487.234375 537.113281 487.234375 537.191406 487.21875 537.269531 C 485.882812 537.058594 484.558594 536.824219 483.222656 536.535156 C 484.558594 536.726562 485.882812 536.886719 487.234375 537.035156 " fill-opacity="1" fill-rule="nonzero"/><path fill="#231313" d="M 517.6875 537.09375 C 514.984375 537.578125 512.269531 537.9375 509.53125 538.175781 C 507.179688 538.386719 504.828125 538.484375 502.457031 538.5 L 501.421875 538.5 C 501.457031 538.289062 501.492188 538.078125 501.515625 537.859375 C 504.210938 537.902344 506.90625 537.859375 509.609375 537.726562 C 512.304688 537.597656 515 537.402344 517.6875 537.09375 " fill-opacity="1" fill-rule="nonzero"/><path fill="#231313" d="M 651.75 384.816406 C 651.320312 401.488281 650.539062 418.453125 644.90625 434.140625 C 635.660156 459.992188 614.53125 479.464844 594.152344 497.832031 C 581.96875 508.816406 569.582031 519.941406 554.835938 527.085938 C 544.179688 532.257812 532.582031 535.207031 520.847656 536.726562 C 519.800781 536.867188 518.765625 537 517.722656 537.09375 C 535.679688 533.917969 552.78125 525.648438 567.695312 514.988281 C 586.785156 501.316406 602.78125 483.835938 618.414062 466.292969 C 624.476562 459.488281 630.585938 452.554688 634.960938 444.554688 C 640.164062 435.011719 642.753906 424.300781 644.519531 413.578125 C 652.691406 364.386719 642.148438 308.527344 603.839844 276.613281 C 592.359375 267.050781 578.980469 260.089844 565.746094 253.1875 C 547.996094 243.976562 529.394531 234.53125 509.398438 234.417969 C 499.324219 234.335938 489.394531 236.671875 479.625 239.21875 C 450.0625 246.945312 420.136719 257.183594 397.183594 277.34375 C 430.484375 244.382812 479.660156 228.226562 526.023438 235.015625 C 572.390625 241.800781 614.867188 271.371094 637.339844 312.496094 C 642.753906 322.390625 647.0625 332.9375 649.398438 343.953125 C 652.234375 357.335938 652.09375 371.15625 651.75 384.816406 " fill-opacity="1" fill-rule="nonzero"/><path fill="#231313" d="M 133.632812 627.511719 C 139.5 637.265625 146.0625 646.554688 153.367188 655.210938 C 149.011719 650.875 144.964844 646.230469 141.464844 641.15625 C 138.496094 636.828125 135.933594 632.234375 133.632812 627.511719 " fill-opacity="1" fill-rule="nonzero"/><path fill="#231313" d="M 238.582031 327.019531 C 247.722656 323.8125 257.085938 320.617188 266.550781 318.457031 L 228.066406 330.988281 C 229.050781 330.503906 230.050781 330.066406 231.050781 329.636719 C 233.570312 328.765625 236.082031 327.898438 238.582031 327.019531 " fill-opacity="1" fill-rule="nonzero"/><path fill="#231313" d="M 125.453125 608.125 C 128.007812 614.640625 130.613281 621.191406 133.632812 627.511719 C 127.085938 616.605469 121.398438 605.132812 116.5625 593.390625 C 107.292969 570.863281 100.9375 546.964844 99.472656 522.636719 C 96.328125 470.148438 116.964844 417.160156 152.945312 378.847656 C 173.179688 357.292969 198.097656 340.355469 225.1875 328.679688 C 238.777344 322.832031 252.945312 318.28125 267.402344 315.121094 C 271.148438 314.296875 275.144531 313.910156 279.207031 313.699219 C 262.714844 317.441406 246.527344 322.777344 231.050781 329.636719 C 225.847656 331.46875 220.640625 333.277344 215.445312 335.085938 L 228.066406 330.988281 C 188.363281 349.101562 153.488281 377.167969 130.246094 413.921875 C 123.328125 424.851562 117.464844 436.460938 112.769531 448.523438 C 104.730469 469.164062 100.101562 491.273438 100.664062 513.441406 C 101.488281 546.226562 113.460938 577.589844 125.453125 608.125 " fill-opacity="1" fill-rule="nonzero"/><path fill="#231313" d="M 281.542969 313.585938 C 280.769531 313.601562 279.980469 313.636719 279.207031 313.699219 C 281.15625 313.234375 283.105469 312.8125 285.0625 312.425781 L 281.542969 313.585938 " fill-opacity="1" fill-rule="nonzero"/><path fill="#231313" d="M 291.75 311.125 C 289.523438 311.539062 287.285156 311.960938 285.0625 312.425781 L 287.433594 311.652344 C 288.878906 311.460938 290.3125 311.285156 291.75 311.125 " fill-opacity="1" fill-rule="nonzero"/><path fill="#231313" d="M 266.550781 318.457031 L 281.542969 313.585938 C 291.101562 313.136719 300.90625 313.269531 308.921875 310.34375 C 310.402344 312.558594 308.535156 315.761719 306.03125 316.703125 C 303.53125 317.632812 300.730469 317.070312 298.097656 316.640625 C 287.554688 315.007812 276.996094 316.085938 266.550781 318.457031 " fill-opacity="1" fill-rule="nonzero"/><path fill="#231313" d="M 316.804688 310.800781 C 317.515625 310.820312 318.207031 310.863281 318.925781 310.917969 C 318.707031 311.382812 318.496094 311.863281 318.304688 312.347656 C 317.785156 311.882812 317.285156 311.363281 316.804688 310.800781 " fill-opacity="1" fill-rule="nonzero"/><path fill="#231313" d="M 340.484375 313.507812 C 339.53125 315.007812 338.617188 316.527344 337.730469 318.054688 C 335.746094 318.011719 333.796875 317.914062 331.9375 317.703125 C 332.585938 315.929688 333.261719 314.15625 333.992188 312.425781 C 336.175781 312.734375 338.328125 313.074219 340.484375 313.507812 " fill-opacity="1" fill-rule="nonzero"/><path fill="#231313" d="M 510.761719 528.746094 C 510.558594 531.757812 510.144531 534.761719 509.609375 537.726562 C 509.59375 537.859375 509.550781 538.015625 509.53125 538.175781 C 508.546875 543.46875 507.160156 548.738281 505.730469 553.933594 C 505.003906 556.65625 504.246094 559.378906 503.484375 562.09375 C 503 563.769531 502.519531 565.464844 502.035156 567.140625 C 500.183594 573.425781 498.261719 579.714844 496.179688 585.9375 C 495.828125 586.957031 495.503906 587.984375 495.136719 588.984375 C 485.691406 616.449219 473.164062 642.683594 453.335938 663.578125 C 429.941406 688.234375 398.035156 703.457031 365.179688 712.113281 C 302.390625 728.648438 230.9375 721.078125 179.886719 680.980469 C 170.160156 673.332031 161.328125 664.660156 153.367188 655.210938 C 157.414062 659.257812 161.699219 663.070312 166.050781 666.738281 C 180.886719 679.285156 196.730469 690.8125 214.1875 699.332031 C 274.984375 728.980469 349.492188 718.390625 409.253906 686.6875 C 426.054688 677.757812 442.273438 667.082031 454.609375 652.628906 C 470.3125 634.21875 478.816406 610.917969 486.910156 588.082031 C 487.023438 587.746094 487.140625 587.421875 487.253906 587.097656 C 487.445312 586.554688 487.640625 586.035156 487.816406 585.492188 C 490.027344 579.246094 492.222656 572.945312 494.25 566.605469 C 494.730469 565.140625 495.171875 563.671875 495.617188 562.207031 C 498.007812 554.382812 500.035156 546.480469 501.421875 538.5 C 501.457031 538.289062 501.492188 538.078125 501.515625 537.859375 C 502.730469 530.710938 503.40625 523.503906 503.324219 516.21875 C 503.097656 496.707031 497.410156 477.726562 491.667969 459.070312 C 484.945312 437.136719 477.835938 414.738281 463.957031 396.441406 C 451.296875 379.75 433.761719 367.527344 416.53125 355.597656 C 404.242188 347.082031 391.941406 338.5625 379.660156 330.066406 C 377.003906 328.210938 374.289062 326.34375 371.5 324.683594 C 369.664062 323.566406 367.792969 322.558594 365.871094 321.699219 C 366.066406 321.277344 366.257812 320.847656 366.453125 320.425781 C 368.488281 321.136719 370.515625 321.890625 372.515625 322.679688 C 399.5 333.164062 424.167969 350.011719 444.207031 370.980469 C 477.449219 405.792969 498.410156 451.261719 507.933594 498.464844 C 509.953125 508.429688 511.480469 518.613281 510.761719 528.746094 " fill-opacity="1" fill-rule="nonzero"/><path fill="#231313" d="M 442.203125 403.84375 C 425.394531 384.316406 404.792969 367.960938 381.960938 355.984375 C 375.308594 352.496094 368.46875 349.371094 361.492188 346.617188 C 360.070312 346.035156 358.640625 345.5 357.21875 344.980469 C 357.347656 344.535156 357.472656 344.070312 357.601562 343.628906 C 359.121094 344.015625 360.648438 344.4375 362.148438 344.867188 C 394.199219 354.351562 421.832031 376.492188 442.203125 403.84375 " fill-opacity="1" fill-rule="nonzero"/><path fill="#231313" d="M 330.277344 332.355469 C 329.488281 334.085938 328.734375 335.824219 328.039062 337.582031 C 327.3125 337.582031 326.574219 337.5625 325.84375 337.5625 C 326.214844 336 326.617188 334.4375 327.039062 332.890625 C 327.136719 332.550781 327.230469 332.214844 327.328125 331.875 C 328.3125 332.003906 329.292969 332.164062 330.277344 332.355469 " fill-opacity="1" fill-rule="nonzero"/><path fill="#231313" d="M 487.234375 537.035156 C 487.234375 537.113281 487.234375 537.191406 487.21875 537.269531 C 486.578125 545.65625 485.347656 553.980469 483.515625 562.152344 C 483.269531 563.25 483.011719 564.332031 482.75 565.410156 C 481.1875 571.8125 479.257812 578.105469 476.964844 584.277344 C 476.691406 584.988281 476.421875 585.683594 476.15625 586.378906 C 472.390625 596.019531 467.757812 605.289062 462.183594 614.042969 C 448.675781 635.265625 430.363281 653.035156 410.65625 668.644531 C 401.097656 676.222656 391.136719 683.351562 380.207031 688.785156 C 345.515625 706.082031 304.339844 704.765625 266.390625 696.8125 C 235.539062 690.347656 204.921875 679.4375 180.445312 659.550781 C 145.800781 631.367188 126.777344 587.589844 119.433594 543.53125 C 117.683594 533.03125 116.507812 522.371094 116.929688 511.730469 C 117.449219 498.332031 120.476562 485.144531 123.828125 472.160156 C 129.957031 448.542969 137.453125 424.800781 151.460938 404.808594 C 177.285156 367.960938 221.625 348.757812 265.242188 337.695312 C 277.898438 334.472656 291.121094 331.855469 304.242188 331.066406 C 306.566406 330.90625 308.921875 330.828125 311.253906 330.828125 C 310.527344 333.085938 309.851562 335.359375 309.226562 337.632812 C 307.015625 337.675781 304.820312 337.757812 302.601562 337.851562 C 287.34375 338.519531 272.160156 340.195312 257.203125 343.402344 C 226.828125 349.890625 197.34375 362.980469 174.757812 384.316406 C 141.773438 415.546875 126.296875 461.90625 124.171875 507.277344 C 123.582031 520.035156 123.945312 532.855469 125.714844 545.480469 C 133.617188 601.996094 171.257812 653.210938 222.28125 678.707031 C 273.308594 704.210938 336.246094 703.722656 387.449219 678.574219 C 411.851562 666.5625 433.761719 649.164062 450 627.363281 C 459.542969 614.5625 466.863281 600.46875 472.085938 585.605469 C 472.320312 584.953125 472.550781 584.277344 472.761719 583.601562 C 474.839844 577.4375 476.578125 571.152344 477.949219 564.769531 C 478.160156 563.847656 478.351562 562.898438 478.527344 561.976562 C 480.203125 553.558594 481.285156 544.980469 481.757812 536.339844 C 481.785156 536.304688 481.785156 536.261719 481.757812 536.226562 C 483.898438 498.753906 475.113281 460.085938 457.074219 427.074219 C 452.6875 419.058594 447.707031 411.246094 442.203125 403.84375 C 458.425781 422.65625 471.128906 444.441406 478.914062 468.03125 C 486.21875 490.15625 489.007812 513.8125 487.234375 537.035156 " fill-opacity="1" fill-rule="nonzero"/><path fill="#231313" d="M 353.460938 371.042969 C 353.011719 370.910156 352.589844 370.785156 352.144531 370.671875 C 352.167969 370.539062 352.1875 370.398438 352.203125 370.269531 C 352.625 370.496094 353.054688 370.769531 353.460938 371.042969 " fill-opacity="1" fill-rule="nonzero"/><path fill="#231313" d="M 434.917969 445.054688 C 425.203125 432.316406 413.5625 420.945312 402.035156 409.726562 C 390.554688 398.566406 378.800781 387.195312 364.292969 380.425781 C 360.746094 378.765625 356.332031 376.222656 356.980469 372.347656 C 389.976562 387.195312 417.800781 413.195312 434.917969 445.054688 " fill-opacity="1" fill-rule="nonzero"/><path fill="#231313" d="M 321.234375 365.253906 L 321.15625 365.253906 C 321.234375 364.578125 321.316406 363.886719 321.367188 363.191406 L 321.445312 363.191406 C 321.367188 363.886719 321.296875 364.5625 321.234375 365.253906 " fill-opacity="1" fill-rule="nonzero"/><path fill="#231313" d="M 460.859375 529.441406 C 460.8125 530.195312 460.777344 530.949219 460.71875 531.714844 C 460.085938 541.144531 458.460938 550.527344 455.960938 559.6875 C 455.878906 559.992188 455.785156 560.300781 455.707031 560.609375 C 454.027344 566.585938 451.949219 572.445312 449.527344 578.132812 C 449.253906 578.730469 449 579.308594 448.753906 579.878906 C 445.304688 587.632812 441.160156 595.035156 436.359375 601.996094 C 407.902344 643.183594 358.78125 667.917969 308.851562 671.480469 C 296.683594 672.339844 284.394531 672.058594 272.449219 669.707031 C 226.777344 660.683594 190.023438 632.507812 169.132812 591.792969 C 149.445312 553.398438 140.804688 506.832031 155.71875 465.3125 C 169.449219 427.09375 198.949219 394.300781 236.484375 378.828125 C 256.140625 370.714844 277.355469 367.335938 298.5 364.949219 C 300.003906 364.773438 301.484375 364.605469 302.988281 364.449219 C 303.355469 364.414062 303.742188 364.367188 304.101562 364.332031 C 304.066406 364.5625 304.050781 364.789062 304.03125 365.027344 C 302.179688 365.078125 300.308594 365.203125 298.457031 365.335938 C 253.925781 368.625 210.5625 390.3125 183.414062 425.914062 C 144.984375 476.285156 142.226562 551.320312 177.65625 603.839844 C 213.074219 656.371094 284.394531 681.886719 344.789062 662.839844 C 362.089844 657.390625 378.238281 648.75 393.25 638.554688 C 409.769531 627.363281 425.21875 613.964844 435.761719 597 C 439.371094 591.214844 442.335938 585.070312 444.785156 578.710938 C 445.03125 578.105469 445.242188 577.492188 445.480469 576.894531 C 447.578125 571.171875 449.253906 565.3125 450.578125 559.351562 C 450.640625 559.125 450.703125 558.894531 450.738281 558.683594 C 450.949219 557.738281 451.140625 556.769531 451.332031 555.832031 C 453.046875 547.226562 454.074219 538.5 454.398438 529.710938 C 454.433594 528.648438 454.476562 527.597656 454.476562 526.535156 C 454.960938 499.253906 448.734375 471.84375 436.246094 447.574219 C 435.804688 446.734375 435.359375 445.898438 434.917969 445.054688 C 438.554688 449.796875 441.914062 454.730469 444.917969 459.894531 C 457.058594 480.902344 462.105469 505.234375 460.859375 529.441406 " fill-opacity="1" fill-rule="nonzero"/></svg>